<svg width="47" height="35" viewBox="0 0 47 35" fill="none" xmlns="http://www.w3.org/2000/svg">
<path d="M32.32 20.5V34.5H29.32V23.9L26.18 26.1L24.52 23.66L29.14 20.5H32.32ZM36.9759 28.04C36.9759 29.1467 37.2493 30.06 37.7959 30.78C38.3426 31.5 39.0159 31.86 39.8159 31.86C40.6159 31.86 41.2893 31.5 41.8359 30.78C42.3826 30.06 42.6559 29.1467 42.6559 28.04V26.98C42.6559 25.8733 42.3826 24.96 41.8359 24.24C41.2893 23.52 40.6159 23.16 39.8159 23.16C39.0159 23.16 38.3426 23.52 37.7959 24.24C37.2493 24.96 36.9759 25.8733 36.9759 26.98V28.04ZM33.9759 28.04V26.98C33.9759 25.0067 34.5426 23.38 35.6759 22.1C36.8093 20.8067 38.1893 20.16 39.8159 20.16C41.4426 20.16 42.8226 20.8067 43.9559 22.1C45.0893 23.38 45.6559 25.0067 45.6559 26.98V28.04C45.6559 30.0133 45.0893 31.6467 43.9559 32.94C42.8226 34.22 41.4426 34.86 39.8159 34.86C38.1893 34.86 36.8093 34.22 35.6759 32.94C34.5426 31.6467 33.9759 30.0133 33.9759 28.04Z" fill="#EEEEEE"/>
<path d="M8.75 32.25L38.25 2.75" stroke="#EEEEEE" stroke-width="0.8"/>
</svg>
