<svg width="460" height="512" viewBox="0 0 460 512" fill="none" xmlns="http://www.w3.org/2000/svg">
<path d="M460 51.1389V99.4369C460 177.878 396.423 241.489 318.025 241.489H298.148L320.211 218.732C384.98 217.567 437.284 164.497 437.284 99.4369V62.5039H352.099L354.939 39.7759H448.643C454.917 39.7739 460 44.8599 460 51.1389Z" fill="#CD7F32"/>
<path d="M303.827 378.34V403.426H156.173V378.34C156.173 376.295 157.28 374.391 159.069 373.397L170.257 367.09C189.622 356.181 201.605 335.697 201.605 313.451V286.944H258.395V313.451C258.395 335.696 270.378 356.18 289.743 367.09L300.931 373.397C302.72 374.391 303.827 376.295 303.827 378.34Z" fill="#CD7F32"/>
<path d="M303.827 378.34V403.426H289.63V378.34C289.63 376.295 288.523 374.391 286.734 373.397L275.546 367.09C256.181 356.181 244.198 335.697 244.198 313.451V286.944H258.396V313.451C258.396 335.696 270.379 356.18 289.744 367.09L300.932 373.397C302.72 374.391 303.827 376.295 303.827 378.34Z" fill="#A25912"/>
<path d="M275.432 264.784V281.262C275.432 289.103 269.072 295.467 261.234 295.467H198.765C190.928 295.467 184.567 289.103 184.567 281.262V264.784H275.432Z" fill="#CD7F32"/>
<path d="M258.395 295.468H201.605V303.821H258.395V295.468Z" fill="#A25912"/>
<path d="M326.543 397.745V497.181H133.457V397.745C133.457 394.62 136.013 392.063 139.136 392.063H320.864C323.988 392.063 326.543 394.62 326.543 397.745Z" fill="#343B49"/>
<path d="M326.543 397.745V497.181H315.185V397.745C315.185 394.62 312.629 392.063 309.506 392.063H320.864C323.988 392.063 326.543 394.62 326.543 397.745Z" fill="#262D38"/>
<path d="M343.58 494.34V505.704C343.58 508.829 341.024 511.386 337.901 511.386H122.099C118.976 511.386 116.42 508.829 116.42 505.704V494.34C116.42 491.215 118.976 488.658 122.099 488.658H337.901C341.025 488.658 343.58 491.215 343.58 494.34Z" fill="#262D38"/>
<path d="M343.58 494.34V505.704C343.58 508.829 341.024 511.386 337.901 511.386H326.543C329.666 511.386 332.222 508.829 332.222 505.704V494.34C332.222 491.215 329.666 488.658 326.543 488.658H337.901C341.025 488.658 343.58 491.215 343.58 494.34Z" fill="#171C23"/>
<path d="M298.148 420.473V460.247C298.148 463.372 295.592 465.929 292.469 465.929H167.531C164.408 465.929 161.852 463.372 161.852 460.247V420.473C161.852 417.348 164.408 414.791 167.531 414.791H292.469C295.593 414.791 298.148 417.348 298.148 420.473Z" fill="#CD7F32"/>
<path d="M275.432 264.784V281.262C275.432 289.103 269.072 295.467 261.234 295.467H249.876C257.713 295.467 264.074 289.103 264.074 281.262V264.784H275.432Z" fill="#A25912"/>
<path d="M170.37 241.488H141.975C63.577 241.488 0 177.877 0 99.4359V51.1389C0 44.8599 5.083 39.7749 11.358 39.7749H105.062V62.5029H22.716V99.4359C22.716 164.496 75.02 217.566 139.789 218.731L170.37 241.488Z" fill="#CD7F32"/>
<path d="M369.136 17.0459V28.4099C369.136 166.484 306.837 278.421 230 278.421C153.163 278.421 90.8638 166.485 90.8638 28.4099V17.0459H369.136Z" fill="#CD7F32"/>
<path d="M92.142 62.5029H80.784C80.216 55.0309 79.8469 47.4459 79.6479 39.7749H91.006C91.205 47.4449 91.574 55.0309 92.142 62.5029Z" fill="#A25912"/>
<path d="M157.195 241.488H145.837C139.505 234.499 133.485 226.601 127.891 217.907C131.81 218.39 135.756 218.646 139.789 218.731C145.241 227.112 151.062 234.726 157.195 241.488Z" fill="#A25912"/>
<path d="M275.432 264.784V270.466C261.178 279.302 245.901 284.103 230 284.103C214.099 284.103 198.822 279.302 184.568 270.466V264.784C198.822 273.62 214.099 278.421 230 278.421C245.901 278.421 261.178 273.62 275.432 264.784Z" fill="#A25912"/>
<path d="M369.136 17.0459V28.4099C369.136 162.166 310.67 271.404 237.156 278.109C308.598 271.319 335.062 162.11 335.062 28.4099V17.0459H369.136Z" fill="#A25912"/>
<path d="M383.333 14.205C383.333 18.126 381.743 21.677 379.187 24.262C376.603 26.819 373.054 28.41 369.135 28.41H90.864C83.027 28.41 76.666 22.046 76.666 14.205C76.666 10.284 78.256 6.733 80.812 4.148C83.396 1.591 86.945 0 90.864 0H369.136C376.973 0 383.333 6.364 383.333 14.205Z" fill="#CD7F32"/>
<path d="M369.136 28.4102C369.136 32.2172 369.079 35.9962 368.994 39.7742H91.0058C90.9208 35.9952 90.8638 32.2172 90.8638 28.4102H369.136Z" fill="#A25912"/>
<path d="M383.333 14.205C383.333 18.126 381.743 21.677 379.187 24.262C376.603 26.819 373.054 28.41 369.135 28.41H337.9C341.819 28.41 345.368 26.819 347.952 24.262C350.508 21.677 352.098 18.125 352.098 14.205C352.098 6.364 345.738 0 337.9 0H369.135C376.973 0 383.333 6.364 383.333 14.205Z" fill="#A25912"/>
<path d="M298.148 420.473V460.247C298.148 463.372 295.592 465.929 292.469 465.929H179.741C202.684 465.474 278.272 460.588 278.272 414.79H292.47C295.593 414.791 298.148 417.348 298.148 420.473Z" fill="#A25912"/>
<path d="M167.531 446.042V422.797C167.531 421.513 168.571 420.473 169.854 420.473H220.772C220.772 420.473 180.309 424.735 167.531 446.042Z" fill="#FFAC59"/>
<path d="M139.846 423.314V400.069C139.846 398.785 140.886 397.745 142.169 397.745H193.087C193.087 397.745 152.623 402.006 139.846 423.314Z" fill="#4E5868"/>
<path d="M230 269.898C199.163 269.898 113.637 204.81 103.273 51.1382H137.006C145.496 239.158 230 269.898 230 269.898Z" fill="#FFAC59"/>
<path d="M170.37 380.699C170.37 380.699 210.123 355.13 210.123 318.196V380.699H170.37Z" fill="#FFAC59"/>
<path d="M96.5432 5.68213V14.2051H82.3452C82.3452 9.51713 86.1502 5.68213 90.8642 5.68213H96.5432Z" fill="#FFAC59"/>
<path d="M377.512 39.7739C377.313 47.4449 376.944 55.0299 376.348 62.5019H352.099L354.939 39.7739H377.512Z" fill="#A25912"/>
<path d="M329.07 218.248C323.505 226.799 317.57 234.584 311.323 241.488H298.148L308.2 231.147L320.211 218.732C323.193 218.674 326.146 218.504 329.07 218.248Z" fill="#A25912"/>
</svg>
