<svg width="11" height="11" viewBox="0 0 11 11" fill="none" xmlns="http://www.w3.org/2000/svg">
              <path d="M2.43232 6.54468L2.43123 6.54682L2.46603 6.58277C2.48226 6.60008 2.49925 6.6168 2.51701 6.63284L2.58799 6.55464L2.6208 6.5714C2.64055 6.53275 2.67095 6.49926 2.72542 6.47524C2.78246 6.45008 2.87042 6.43345 3.00688 6.44036L2.43232 6.54468ZM2.43232 6.54468C2.35761 6.4553 2.30178 6.35349 2.26609 6.25189C2.21848 6.11635 2.20379 5.97247 2.23699 5.85337C2.23699 5.85337 2.23699 5.85337 2.23699 5.85337L2.43232 6.54468ZM3.59576 5.5838C3.48341 5.36321 3.28783 5.12109 3.06564 4.90136C2.84281 4.681 2.58814 4.47813 2.35305 4.33765C2.12979 4.20423 1.90372 4.03638 1.73804 3.83913C1.57275 3.64235 1.47219 3.42222 1.48569 3.18025C1.51329 2.68578 1.91038 2.37917 2.26985 2.35725C2.35533 2.35203 2.41889 2.36827 2.46759 2.39566C2.51665 2.42324 2.55654 2.46548 2.58899 2.52126C2.65564 2.63581 2.68504 2.797 2.69696 2.9634C2.70589 3.08817 2.68749 3.18503 2.66359 3.25659L2.72497 3.27709L2.6796 3.34864C2.68814 3.35408 2.69703 3.35935 2.70616 3.36428L2.80038 3.4152L2.80465 3.40241C2.83848 3.41099 2.87337 3.4155 2.9086 3.41573L2.99919 3.41633V3.32574V2.18177V2.13458L2.96037 2.10774C2.79111 1.99072 2.56347 1.87347 2.29873 1.8402C2.03142 1.8066 1.73187 1.85948 1.42487 2.07416C1.14249 2.27163 0.963604 2.50461 0.877322 2.75556C0.791056 3.00646 0.79981 3.26824 0.880734 3.51904C1.04173 4.018 1.4886 4.47748 2.06263 4.75473C2.61366 5.02087 2.93425 5.30404 3.06565 5.53688C3.1308 5.65232 3.14564 5.74818 3.12937 5.82179C3.11356 5.89331 3.06517 5.95854 2.97199 6.00883L2.97198 6.00883C2.929 6.03204 2.89612 6.03611 2.87242 6.03331C2.84861 6.03049 2.82714 6.01992 2.80822 6.00243C2.76738 5.9647 2.74592 5.90149 2.75124 5.85383C2.75923 5.78231 2.72863 5.72253 2.68005 5.68438C2.63439 5.64854 2.57595 5.63336 2.5206 5.63385L3.59576 5.5838ZM3.59576 5.5838C3.59576 5.58381 3.59577 5.58381 3.59577 5.58381L3.51557 5.62466L3.59576 5.5838Z" fill="#D69812" stroke="#D69812" strokeWidth="0.5" />
              <mask id="path-2-outside-1_1_182" maskUnits="userSpaceOnUse" x="0.390625" y="1.25" width="4" height="6" fill="black">
                <rect fill="white" x="0.390625" y="1.25" width="4" height="6" />
                <path d="M3.93771 5.71028C3.58073 5.46354 3.29683 5.12482 3.11599 4.72986C3.04626 4.6765 2.97449 4.62194 2.90235 4.56661L2.82324 4.5059C2.66493 4.3841 2.50677 4.2596 2.36467 4.1373C2.35284 4.12709 2.34111 4.11692 2.3295 4.10678C2.08567 3.89342 1.89525 3.68807 1.84359 3.51686C1.80055 3.37637 1.80247 3.22591 1.84907 3.08657C1.85812 3.05911 1.86871 3.03219 1.88079 3.00593C1.88879 2.98858 1.89733 2.97166 1.90643 2.95516C1.93311 2.90666 1.96455 2.86095 2.00027 2.81869C2.01184 2.80497 2.02371 2.79176 2.03587 2.77906C2.05412 2.76007 2.07291 2.74229 2.09202 2.72582C2.10477 2.71484 2.11766 2.70443 2.1307 2.69458C2.14374 2.68474 2.15679 2.67559 2.16987 2.66714C2.18296 2.65858 2.19611 2.65067 2.20915 2.64343C2.21572 2.6398 2.22224 2.63634 2.22876 2.63305C2.2418 2.62646 2.25472 2.62055 2.26754 2.61532C2.28588 2.6078 2.30474 2.60161 2.32397 2.59682C2.34681 2.59096 2.37029 2.58799 2.39387 2.58798C2.4928 2.58886 2.56155 2.65506 2.55208 2.80717C2.55104 2.82363 2.55043 2.8401 2.55027 2.85553C2.55027 2.86069 2.55027 2.86557 2.55027 2.87068C2.55027 2.88089 2.55027 2.8911 2.55076 2.90092C2.55076 2.90713 2.55153 2.91294 2.55197 2.91898C2.55246 2.92727 2.55295 2.93545 2.55372 2.94357C2.55438 2.95 2.55525 2.95609 2.55608 2.96235C2.5569 2.9686 2.55777 2.97662 2.55887 2.98342C2.55997 2.99023 2.56122 2.99616 2.56248 3.00247C2.56374 3.00878 2.56479 3.01477 2.5661 3.02064C2.56742 3.02651 2.56933 3.03332 2.57098 3.03958C2.5724 3.04507 2.57372 3.05017 2.57525 3.05528C2.57722 3.06165 2.57936 3.06779 2.58149 3.07394C2.58303 3.07839 2.58456 3.08294 2.58621 3.08728C2.58862 3.09359 2.59119 3.09963 2.59382 3.10567C2.59546 3.1094 2.59705 3.11319 2.59875 3.11665C2.60165 3.12279 2.60472 3.12872 2.60784 3.13454C2.60949 3.13762 2.61113 3.1408 2.61283 3.14376C2.61628 3.1498 2.61984 3.15556 2.62346 3.16122C2.62504 3.16369 2.62663 3.16616 2.62828 3.16857C2.63222 3.17439 2.63633 3.17999 2.64055 3.18543C2.64197 3.18735 2.64345 3.18921 2.64493 3.19092C2.64948 3.1964 2.65408 3.20189 2.65885 3.20738L2.66273 3.21155C2.66783 3.21704 2.67298 3.22204 2.67835 3.22692C2.67933 3.22791 2.68037 3.22885 2.68141 3.22972C2.68689 3.23483 2.69292 3.23971 2.69884 3.24432L2.70092 3.24592C2.70722 3.25069 2.71363 3.25525 2.72015 3.25947L2.72119 3.26019C2.72803 3.26458 2.73505 3.26875 2.74211 3.27259C2.7695 3.19064 2.78961 3.08124 2.7798 2.94324C2.75559 2.60324 2.65863 2.22685 2.25872 2.25111C1.85882 2.27538 1.42227 2.61554 1.39198 3.16221C1.36168 3.70887 1.84639 4.13379 2.3008 4.40677C2.75521 4.67974 3.29447 5.20209 3.50653 5.62102C3.64096 5.88654 3.44901 6.37233 3.00364 6.34955C2.71516 6.33484 2.59119 6.41756 2.534 6.5302C2.5458 6.54246 2.55799 6.55431 2.57059 6.56577C2.57678 6.57126 2.58314 6.57674 2.58955 6.58223H2.58988C2.59618 6.58772 2.60264 6.59288 2.60916 6.59804L2.60976 6.59854C2.61623 6.60362 2.62278 6.60862 2.62943 6.61352L2.6303 6.61413C2.63684 6.61888 2.64347 6.62355 2.65019 6.62812L2.65145 6.629C2.65802 6.63347 2.66471 6.63782 2.6715 6.64207L2.6732 6.64311C2.67983 6.64728 2.68656 6.65123 2.69336 6.65518L2.69549 6.65645C2.70223 6.66029 2.70902 6.66397 2.71587 6.66743L2.71845 6.6688C2.72513 6.67231 2.73198 6.67566 2.73888 6.6789L2.74195 6.68043C2.74869 6.68356 2.75553 6.68658 2.76244 6.68955L2.766 6.69114C2.77279 6.69394 2.77964 6.69663 2.78649 6.69926L2.7907 6.70085C2.79739 6.70338 2.80418 6.70568 2.81103 6.70799L2.81596 6.70964C2.82259 6.71183 2.82932 6.71381 2.83612 6.71573L2.84159 6.71743C2.84828 6.71924 2.85502 6.72094 2.86181 6.72259L2.86794 6.72413C2.87457 6.72567 2.88137 6.72704 2.8881 6.72836L2.89479 6.72973C2.90147 6.73094 2.90821 6.73203 2.91495 6.73308L2.92218 6.73423C2.92881 6.73516 2.93544 6.73588 2.94212 6.73664L2.95017 6.73758C2.95674 6.73818 2.96332 6.73862 2.96995 6.73906L2.97866 6.73972C2.98512 6.74005 2.99164 6.74016 2.99816 6.74032C3.00134 6.74032 3.00446 6.74032 3.00769 6.74032C3.01405 6.74032 3.02051 6.74032 3.02697 6.74032C3.03037 6.74032 3.03377 6.74032 3.03722 6.74032C3.04357 6.74032 3.04998 6.73966 3.05639 6.73928C3.06001 6.73928 3.06362 6.73895 3.06735 6.73868C3.0737 6.73818 3.08011 6.73747 3.08647 6.73681C3.0903 6.73642 3.09408 6.73615 3.09792 6.73566C3.10422 6.73494 3.11057 6.73395 3.11693 6.73302C3.12092 6.73247 3.12492 6.73198 3.12898 6.73132C3.13533 6.73028 3.1418 6.72901 3.14826 6.72781C3.15231 6.72709 3.15637 6.72643 3.16048 6.72561C3.16689 6.72429 3.17346 6.7227 3.17998 6.72122C3.18414 6.72029 3.1883 6.71941 3.19252 6.71836C3.19888 6.71683 3.2054 6.71502 3.21181 6.71326C3.21624 6.71205 3.22063 6.71101 3.22506 6.70975C3.23153 6.70788 3.23805 6.70574 3.24457 6.70371C3.24906 6.70234 3.25349 6.70102 3.25804 6.69954C3.26478 6.69734 3.27157 6.69487 3.27836 6.69246C3.28275 6.69092 3.28708 6.68949 3.29151 6.68785C3.29863 6.68521 3.30587 6.68236 3.31304 6.67945C3.3172 6.6778 3.32131 6.67626 3.32548 6.67456C3.33309 6.67138 3.34082 6.66797 3.34854 6.66457C3.35237 6.66287 3.3561 6.66139 3.35993 6.65963C3.37151 6.65443 3.38312 6.64895 3.39477 6.64316C3.81884 6.43331 3.98482 6.05857 3.93771 5.71028Z" />
              </mask>
              <path d="M3.93771 5.71028C3.58073 5.46354 3.29683 5.12482 3.11599 4.72986C3.04626 4.6765 2.97449 4.62194 2.90235 4.56661L2.82324 4.5059C2.66493 4.3841 2.50677 4.2596 2.36467 4.1373C2.35284 4.12709 2.34111 4.11692 2.3295 4.10678C2.08567 3.89342 1.89525 3.68807 1.84359 3.51686C1.80055 3.37637 1.80247 3.22591 1.84907 3.08657C1.85812 3.05911 1.86871 3.03219 1.88079 3.00593C1.88879 2.98858 1.89733 2.97166 1.90643 2.95516C1.93311 2.90666 1.96455 2.86095 2.00027 2.81869C2.01184 2.80497 2.02371 2.79176 2.03587 2.77906C2.05412 2.76007 2.07291 2.74229 2.09202 2.72582C2.10477 2.71484 2.11766 2.70443 2.1307 2.69458C2.14374 2.68474 2.15679 2.67559 2.16987 2.66714C2.18296 2.65858 2.19611 2.65067 2.20915 2.64343C2.21572 2.6398 2.22224 2.63634 2.22876 2.63305C2.2418 2.62646 2.25472 2.62055 2.26754 2.61532C2.28588 2.6078 2.30474 2.60161 2.32397 2.59682C2.34681 2.59096 2.37029 2.58799 2.39387 2.58798C2.4928 2.58886 2.56155 2.65506 2.55208 2.80717C2.55104 2.82363 2.55043 2.8401 2.55027 2.85553C2.55027 2.86069 2.55027 2.86557 2.55027 2.87068C2.55027 2.88089 2.55027 2.8911 2.55076 2.90092C2.55076 2.90713 2.55153 2.91294 2.55197 2.91898C2.55246 2.92727 2.55295 2.93545 2.55372 2.94357C2.55438 2.95 2.55525 2.95609 2.55608 2.96235C2.5569 2.9686 2.55777 2.97662 2.55887 2.98342C2.55997 2.99023 2.56122 2.99616 2.56248 3.00247C2.56374 3.00878 2.56479 3.01477 2.5661 3.02064C2.56742 3.02651 2.56933 3.03332 2.57098 3.03958C2.5724 3.04507 2.57372 3.05017 2.57525 3.05528C2.57722 3.06165 2.57936 3.06779 2.58149 3.07394C2.58303 3.07839 2.58456 3.08294 2.58621 3.08728C2.58862 3.09359 2.59119 3.09963 2.59382 3.10567C2.59546 3.1094 2.59705 3.11319 2.59875 3.11665C2.60165 3.12279 2.60472 3.12872 2.60784 3.13454C2.60949 3.13762 2.61113 3.1408 2.61283 3.14376C2.61628 3.1498 2.61984 3.15556 2.62346 3.16122C2.62504 3.16369 2.62663 3.16616 2.62828 3.16857C2.63222 3.17439 2.63633 3.17999 2.64055 3.18543C2.64197 3.18735 2.64345 3.18921 2.64493 3.19092C2.64948 3.1964 2.65408 3.20189 2.65885 3.20738L2.66273 3.21155C2.66783 3.21704 2.67298 3.22204 2.67835 3.22692C2.67933 3.22791 2.68037 3.22885 2.68141 3.22972C2.68689 3.23483 2.69292 3.23971 2.69884 3.24432L2.70092 3.24592C2.70722 3.25069 2.71363 3.25525 2.72015 3.25947L2.72119 3.26019C2.72803 3.26458 2.73505 3.26875 2.74211 3.27259C2.7695 3.19064 2.78961 3.08124 2.7798 2.94324C2.75559 2.60324 2.65863 2.22685 2.25872 2.25111C1.85882 2.27538 1.42227 2.61554 1.39198 3.16221C1.36168 3.70887 1.84639 4.13379 2.3008 4.40677C2.75521 4.67974 3.29447 5.20209 3.50653 5.62102C3.64096 5.88654 3.44901 6.37233 3.00364 6.34955C2.71516 6.33484 2.59119 6.41756 2.534 6.5302C2.5458 6.54246 2.55799 6.55431 2.57059 6.56577C2.57678 6.57126 2.58314 6.57674 2.58955 6.58223H2.58988C2.59618 6.58772 2.60264 6.59288 2.60916 6.59804L2.60976 6.59854C2.61623 6.60362 2.62278 6.60862 2.62943 6.61352L2.6303 6.61413C2.63684 6.61888 2.64347 6.62355 2.65019 6.62812L2.65145 6.629C2.65802 6.63347 2.66471 6.63782 2.6715 6.64207L2.6732 6.64311C2.67983 6.64728 2.68656 6.65123 2.69336 6.65518L2.69549 6.65645C2.70223 6.66029 2.70902 6.66397 2.71587 6.66743L2.71845 6.6688C2.72513 6.67231 2.73198 6.67566 2.73888 6.6789L2.74195 6.68043C2.74869 6.68356 2.75553 6.68658 2.76244 6.68955L2.766 6.69114C2.77279 6.69394 2.77964 6.69663 2.78649 6.69926L2.7907 6.70085C2.79739 6.70338 2.80418 6.70568 2.81103 6.70799L2.81596 6.70964C2.82259 6.71183 2.82932 6.71381 2.83612 6.71573L2.84159 6.71743C2.84828 6.71924 2.85502 6.72094 2.86181 6.72259L2.86794 6.72413C2.87457 6.72567 2.88137 6.72704 2.8881 6.72836L2.89479 6.72973C2.90147 6.73094 2.90821 6.73203 2.91495 6.73308L2.92218 6.73423C2.92881 6.73516 2.93544 6.73588 2.94212 6.73664L2.95017 6.73758C2.95674 6.73818 2.96332 6.73862 2.96995 6.73906L2.97866 6.73972C2.98512 6.74005 2.99164 6.74016 2.99816 6.74032C3.00134 6.74032 3.00446 6.74032 3.00769 6.74032C3.01405 6.74032 3.02051 6.74032 3.02697 6.74032C3.03037 6.74032 3.03377 6.74032 3.03722 6.74032C3.04357 6.74032 3.04998 6.73966 3.05639 6.73928C3.06001 6.73928 3.06362 6.73895 3.06735 6.73868C3.0737 6.73818 3.08011 6.73747 3.08647 6.73681C3.0903 6.73642 3.09408 6.73615 3.09792 6.73566C3.10422 6.73494 3.11057 6.73395 3.11693 6.73302C3.12092 6.73247 3.12492 6.73198 3.12898 6.73132C3.13533 6.73028 3.1418 6.72901 3.14826 6.72781C3.15231 6.72709 3.15637 6.72643 3.16048 6.72561C3.16689 6.72429 3.17346 6.7227 3.17998 6.72122C3.18414 6.72029 3.1883 6.71941 3.19252 6.71836C3.19888 6.71683 3.2054 6.71502 3.21181 6.71326C3.21624 6.71205 3.22063 6.71101 3.22506 6.70975C3.23153 6.70788 3.23805 6.70574 3.24457 6.70371C3.24906 6.70234 3.25349 6.70102 3.25804 6.69954C3.26478 6.69734 3.27157 6.69487 3.27836 6.69246C3.28275 6.69092 3.28708 6.68949 3.29151 6.68785C3.29863 6.68521 3.30587 6.68236 3.31304 6.67945C3.3172 6.6778 3.32131 6.67626 3.32548 6.67456C3.33309 6.67138 3.34082 6.66797 3.34854 6.66457C3.35237 6.66287 3.3561 6.66139 3.35993 6.65963C3.37151 6.65443 3.38312 6.64895 3.39477 6.64316C3.81884 6.43331 3.98482 6.05857 3.93771 5.71028Z" fill="#B7791D" />
              <path d="M3.93771 5.71028C3.58073 5.46354 3.29683 5.12482 3.11599 4.72986C3.04626 4.6765 2.97449 4.62194 2.90235 4.56661L2.82324 4.5059C2.66493 4.3841 2.50677 4.2596 2.36467 4.1373C2.35284 4.12709 2.34111 4.11692 2.3295 4.10678C2.08567 3.89342 1.89525 3.68807 1.84359 3.51686C1.80055 3.37637 1.80247 3.22591 1.84907 3.08657C1.85812 3.05911 1.86871 3.03219 1.88079 3.00593C1.88879 2.98858 1.89733 2.97166 1.90643 2.95516C1.93311 2.90666 1.96455 2.86095 2.00027 2.81869C2.01184 2.80497 2.02371 2.79176 2.03587 2.77906C2.05412 2.76007 2.07291 2.74229 2.09202 2.72582C2.10477 2.71484 2.11766 2.70443 2.1307 2.69458C2.14374 2.68474 2.15679 2.67559 2.16987 2.66714C2.18296 2.65858 2.19611 2.65067 2.20915 2.64343C2.21572 2.6398 2.22224 2.63634 2.22876 2.63305C2.2418 2.62646 2.25472 2.62055 2.26754 2.61532C2.28588 2.6078 2.30474 2.60161 2.32397 2.59682C2.34681 2.59096 2.37029 2.58799 2.39387 2.58798C2.4928 2.58886 2.56155 2.65506 2.55208 2.80717C2.55104 2.82363 2.55043 2.8401 2.55027 2.85553C2.55027 2.86069 2.55027 2.86557 2.55027 2.87068C2.55027 2.88089 2.55027 2.8911 2.55076 2.90092C2.55076 2.90713 2.55153 2.91294 2.55197 2.91898C2.55246 2.92727 2.55295 2.93545 2.55372 2.94357C2.55438 2.95 2.55525 2.95609 2.55608 2.96235C2.5569 2.9686 2.55777 2.97662 2.55887 2.98342C2.55997 2.99023 2.56122 2.99616 2.56248 3.00247C2.56374 3.00878 2.56479 3.01477 2.5661 3.02064C2.56742 3.02651 2.56933 3.03332 2.57098 3.03958C2.5724 3.04507 2.57372 3.05017 2.57525 3.05528C2.57722 3.06165 2.57936 3.06779 2.58149 3.07394C2.58303 3.07839 2.58456 3.08294 2.58621 3.08728C2.58862 3.09359 2.59119 3.09963 2.59382 3.10567C2.59546 3.1094 2.59705 3.11319 2.59875 3.11665C2.60165 3.12279 2.60472 3.12872 2.60784 3.13454C2.60949 3.13762 2.61113 3.1408 2.61283 3.14376C2.61628 3.1498 2.61984 3.15556 2.62346 3.16122C2.62504 3.16369 2.62663 3.16616 2.62828 3.16857C2.63222 3.17439 2.63633 3.17999 2.64055 3.18543C2.64197 3.18735 2.64345 3.18921 2.64493 3.19092C2.64948 3.1964 2.65408 3.20189 2.65885 3.20738L2.66273 3.21155C2.66783 3.21704 2.67298 3.22204 2.67835 3.22692C2.67933 3.22791 2.68037 3.22885 2.68141 3.22972C2.68689 3.23483 2.69292 3.23971 2.69884 3.24432L2.70092 3.24592C2.70722 3.25069 2.71363 3.25525 2.72015 3.25947L2.72119 3.26019C2.72803 3.26458 2.73505 3.26875 2.74211 3.27259C2.7695 3.19064 2.78961 3.08124 2.7798 2.94324C2.75559 2.60324 2.65863 2.22685 2.25872 2.25111C1.85882 2.27538 1.42227 2.61554 1.39198 3.16221C1.36168 3.70887 1.84639 4.13379 2.3008 4.40677C2.75521 4.67974 3.29447 5.20209 3.50653 5.62102C3.64096 5.88654 3.44901 6.37233 3.00364 6.34955C2.71516 6.33484 2.59119 6.41756 2.534 6.5302C2.5458 6.54246 2.55799 6.55431 2.57059 6.56577C2.57678 6.57126 2.58314 6.57674 2.58955 6.58223H2.58988C2.59618 6.58772 2.60264 6.59288 2.60916 6.59804L2.60976 6.59854C2.61623 6.60362 2.62278 6.60862 2.62943 6.61352L2.6303 6.61413C2.63684 6.61888 2.64347 6.62355 2.65019 6.62812L2.65145 6.629C2.65802 6.63347 2.66471 6.63782 2.6715 6.64207L2.6732 6.64311C2.67983 6.64728 2.68656 6.65123 2.69336 6.65518L2.69549 6.65645C2.70223 6.66029 2.70902 6.66397 2.71587 6.66743L2.71845 6.6688C2.72513 6.67231 2.73198 6.67566 2.73888 6.6789L2.74195 6.68043C2.74869 6.68356 2.75553 6.68658 2.76244 6.68955L2.766 6.69114C2.77279 6.69394 2.77964 6.69663 2.78649 6.69926L2.7907 6.70085C2.79739 6.70338 2.80418 6.70568 2.81103 6.70799L2.81596 6.70964C2.82259 6.71183 2.82932 6.71381 2.83612 6.71573L2.84159 6.71743C2.84828 6.71924 2.85502 6.72094 2.86181 6.72259L2.86794 6.72413C2.87457 6.72567 2.88137 6.72704 2.8881 6.72836L2.89479 6.72973C2.90147 6.73094 2.90821 6.73203 2.91495 6.73308L2.92218 6.73423C2.92881 6.73516 2.93544 6.73588 2.94212 6.73664L2.95017 6.73758C2.95674 6.73818 2.96332 6.73862 2.96995 6.73906L2.97866 6.73972C2.98512 6.74005 2.99164 6.74016 2.99816 6.74032C3.00134 6.74032 3.00446 6.74032 3.00769 6.74032C3.01405 6.74032 3.02051 6.74032 3.02697 6.74032C3.03037 6.74032 3.03377 6.74032 3.03722 6.74032C3.04357 6.74032 3.04998 6.73966 3.05639 6.73928C3.06001 6.73928 3.06362 6.73895 3.06735 6.73868C3.0737 6.73818 3.08011 6.73747 3.08647 6.73681C3.0903 6.73642 3.09408 6.73615 3.09792 6.73566C3.10422 6.73494 3.11057 6.73395 3.11693 6.73302C3.12092 6.73247 3.12492 6.73198 3.12898 6.73132C3.13533 6.73028 3.1418 6.72901 3.14826 6.72781C3.15231 6.72709 3.15637 6.72643 3.16048 6.72561C3.16689 6.72429 3.17346 6.7227 3.17998 6.72122C3.18414 6.72029 3.1883 6.71941 3.19252 6.71836C3.19888 6.71683 3.2054 6.71502 3.21181 6.71326C3.21624 6.71205 3.22063 6.71101 3.22506 6.70975C3.23153 6.70788 3.23805 6.70574 3.24457 6.70371C3.24906 6.70234 3.25349 6.70102 3.25804 6.69954C3.26478 6.69734 3.27157 6.69487 3.27836 6.69246C3.28275 6.69092 3.28708 6.68949 3.29151 6.68785C3.29863 6.68521 3.30587 6.68236 3.31304 6.67945C3.3172 6.6778 3.32131 6.67626 3.32548 6.67456C3.33309 6.67138 3.34082 6.66797 3.34854 6.66457C3.35237 6.66287 3.3561 6.66139 3.35993 6.65963C3.37151 6.65443 3.38312 6.64895 3.39477 6.64316C3.81884 6.43331 3.98482 6.05857 3.93771 5.71028Z" stroke="#B7791D" strokeWidth="0.18" mask="url(#path-2-outside-1_1_182)" />
              <path d="M8.53672 5.85336C8.49451 5.70183 8.36557 5.63486 8.25314 5.63386C8.19779 5.63337 8.13934 5.64853 8.09368 5.68436C8.04508 5.72249 8.01447 5.78227 8.02246 5.85381C8.02778 5.90149 8.00632 5.96475 7.96548 6.00249C7.94656 6.01998 7.92511 6.03055 7.90131 6.03336C7.87763 6.03616 7.84475 6.03208 7.80175 6.00884L7.80167 6.0088C7.70851 5.95856 7.66011 5.89334 7.64428 5.82182C7.62798 5.74819 7.64281 5.65231 7.70794 5.53685C7.83931 5.30397 8.1599 5.02073 8.71106 4.75467C9.28525 4.4775 9.73207 4.01803 9.893 3.51906C9.97389 3.26827 9.9826 3.00649 9.89633 2.75559C9.81004 2.50464 9.63117 2.27166 9.34886 2.07418L9.34885 2.07417L8.45002 5.87751M8.53672 5.85336L8.45002 5.87751M8.53672 5.85336C8.53672 5.85335 8.53672 5.85335 8.53672 5.85334L8.45002 5.87751M8.53672 5.85336C8.56992 5.97246 8.55524 6.11632 8.50764 6.25186C8.47194 6.35349 8.41608 6.45533 8.34133 6.54475M8.45002 5.87751C8.49434 6.0365 8.43665 6.27292 8.29529 6.4582C8.30177 6.46846 8.30772 6.47896 8.31319 6.48967L8.34133 6.54475M8.34133 6.54475L8.34247 6.54699L8.29771 6.59322M8.34133 6.54475C8.32744 6.56136 8.31289 6.57755 8.29771 6.59322M7.94012 3.3165C7.96903 3.30989 7.99747 3.29953 8.02444 3.285C8.02445 3.285 8.02446 3.28499 8.02447 3.28498L7.94012 3.3165ZM7.94012 3.3165L7.96892 3.40215C8.00238 3.39378 8.03549 3.3813 8.06726 3.36417C8.06795 3.36379 8.06865 3.36341 8.06934 3.36304M7.94012 3.3165L8.06934 3.36304M8.06934 3.36304C8.07767 3.35848 8.08591 3.3536 8.09404 3.34839L8.04837 3.27695M8.06934 3.36304L8.04837 3.27695M8.17937 6.45642C8.16558 6.47132 8.15112 6.48564 8.13603 6.49928C8.14717 6.48921 8.15796 6.47879 8.16839 6.46802L8.23305 6.53062M8.17937 6.45642L8.19636 6.56606L8.18604 6.55463L8.23305 6.53062M8.17937 6.45642C8.20194 6.47886 8.21939 6.50389 8.23305 6.53062M8.17937 6.45642L8.23305 6.53062M8.04837 3.27695L8.10978 3.2563C8.08591 3.18533 8.06753 3.08825 8.07646 2.96328L8.04837 3.27695ZM8.29771 6.59322C8.28452 6.60683 8.27085 6.62005 8.2567 6.63284C8.27081 6.62008 8.28448 6.60688 8.29771 6.59322ZM7.90304 3.32294C7.90324 3.32292 7.90345 3.3229 7.90365 3.32287V3.32294H7.90304ZM7.70809 4.90149C7.48584 5.12117 7.29016 5.3633 7.17792 5.58394L8.07646 2.96327C8.08839 2.79687 8.11779 2.63574 8.18443 2.52123C8.21688 2.46546 8.25677 2.42322 8.30585 2.39562C8.35457 2.36821 8.41815 2.35195 8.50364 2.3571C8.86303 2.37877 9.26018 2.68524 9.28803 3.18034C9.30166 3.42257 9.20103 3.64282 9.03566 3.83964C8.86991 4.03692 8.64378 4.20472 8.42067 4.338C8.18574 4.47835 7.931 4.68116 7.70809 4.90149ZM7.7668 6.44052C7.76681 6.44052 7.76681 6.44052 7.76682 6.44052L7.76225 6.35063L7.7668 6.44052Z" fill="#D69812" stroke="#D69812" strokeWidth="0.18" />
              <mask id="path-4-outside-2_1_182" maskUnits="userSpaceOnUse" x="5.8291" y="1.25" width="4" height="6" fill="black">
                <rect fill="white" x="5.8291" y="1.25" width="4" height="6" />
                <path d="M8.2405 6.52982C8.18332 6.41719 8.05937 6.33447 7.77094 6.34918C7.32564 6.37196 7.13371 5.8862 7.26812 5.6207C7.48015 5.20179 8.01927 4.67974 8.47367 4.40651C8.92806 4.13327 9.41263 3.70838 9.38261 3.16229C9.3526 2.6162 8.9159 2.27567 8.51606 2.25114C8.11622 2.2266 8.01927 2.60325 7.99506 2.94323C7.98526 3.08111 8.00542 3.19023 8.03275 3.27256C8.03981 3.26872 8.04682 3.26455 8.05367 3.26016L8.05471 3.25944C8.06123 3.25522 8.06764 3.25066 8.07394 3.24589L8.07602 3.24429C8.08193 3.23968 8.08774 3.2348 8.09344 3.22969C8.09448 3.22882 8.09552 3.22788 8.0965 3.2269C8.10198 3.22201 8.10707 3.21685 8.11211 3.21153L8.116 3.20735C8.12077 3.2022 8.12537 3.19676 8.12991 3.19089C8.13139 3.18902 8.13287 3.18716 8.1343 3.1854C8.13851 3.17991 8.14262 3.17442 8.14656 3.16855C8.14821 3.16613 8.1498 3.16366 8.15138 3.16119C8.155 3.1557 8.15856 3.14978 8.16201 3.14374C8.16371 3.14077 8.16535 3.13759 8.16699 3.13452C8.17012 3.1287 8.17318 3.12277 8.17609 3.11662C8.17778 3.11295 8.17937 3.10916 8.18102 3.10565C8.18365 3.09961 8.18649 3.09357 8.18863 3.08726C8.19033 3.08292 8.19181 3.07837 8.19334 3.07392C8.19548 3.06777 8.19761 3.06162 8.19958 3.05526C8.20112 3.05015 8.20243 3.04483 8.20386 3.03956C8.2055 3.0333 8.20725 3.02715 8.20873 3.02062C8.21021 3.01409 8.2112 3.00855 8.21235 3.00245C8.2135 2.99636 8.21487 2.98994 8.21596 2.98341C8.21706 2.97688 8.21788 2.96941 8.21875 2.96233C8.21963 2.95525 8.22045 2.94998 8.22111 2.94356C8.22188 2.9356 8.22237 2.92709 8.22292 2.91897C8.2233 2.91293 8.22385 2.90711 8.22407 2.90091C8.22451 2.89109 8.22451 2.88088 8.22456 2.87067C8.22456 2.86556 8.22456 2.86068 8.22456 2.85552C8.22456 2.83987 8.22379 2.82379 8.22281 2.80716C8.21328 2.65506 8.28202 2.58887 8.38094 2.58799C8.40453 2.58799 8.42803 2.59096 8.45088 2.59683C8.4701 2.60163 8.48895 2.60782 8.5073 2.61532C8.52006 2.62054 8.53304 2.6263 8.54602 2.63305C8.55254 2.63635 8.55906 2.63981 8.56563 2.64343C8.57866 2.65067 8.59181 2.65858 8.6049 2.66714C8.61147 2.67142 8.61799 2.67587 8.62456 2.68048C8.64412 2.69425 8.66362 2.7094 8.68273 2.72593C8.70185 2.74245 8.72063 2.76018 8.73887 2.77917C8.75103 2.79183 8.7629 2.80504 8.77447 2.8188C8.81019 2.86105 8.84162 2.90676 8.8683 2.95525C8.87739 2.97175 8.88594 2.98868 8.89393 3.00602C8.90601 3.03228 8.9166 3.0592 8.92565 3.08665C8.97226 3.22599 8.97418 3.37645 8.93112 3.51693C8.87947 3.68812 8.68903 3.89346 8.44529 4.10682C8.43368 4.11695 8.42196 4.12712 8.41013 4.13733C8.26805 4.25963 8.10992 4.38433 7.95163 4.50591L7.87254 4.56662C7.77225 4.64346 7.67306 4.71855 7.57885 4.79117C7.40764 5.13884 7.15538 5.44008 6.84342 5.66939C6.79413 5.9362 6.87081 6.22322 7.09373 6.44272C7.12015 6.46868 7.14798 6.49316 7.17709 6.51605C7.24006 6.56536 7.30798 6.60796 7.37975 6.64317C7.39142 6.64899 7.40308 6.65453 7.41459 6.65964C7.41842 6.66139 7.4222 6.66287 7.42598 6.66458C7.4337 6.66798 7.44142 6.67138 7.44904 6.67457C7.4532 6.67627 7.45731 6.6778 7.46147 6.67945C7.46865 6.6823 7.47588 6.68494 7.483 6.68785C7.48743 6.6895 7.49176 6.69092 7.49614 6.69246C7.50293 6.69487 7.50973 6.69734 7.51646 6.69954C7.52095 6.70102 7.52545 6.70234 7.52994 6.70371C7.53646 6.70574 7.54297 6.70788 7.54944 6.70975C7.55387 6.71101 7.55825 6.71205 7.56269 6.71326C7.5691 6.71502 7.57562 6.71683 7.58197 6.71837C7.58619 6.71941 7.59035 6.72029 7.59451 6.72122C7.60103 6.7227 7.6076 6.72429 7.61401 6.72561C7.61812 6.72643 7.62217 6.72709 7.62628 6.72781C7.63269 6.72901 7.63915 6.73028 7.64556 6.73132C7.64956 6.73198 7.65356 6.73247 7.65756 6.73302C7.66391 6.73395 7.67032 6.73494 7.67656 6.73566C7.6804 6.73615 7.68418 6.73642 7.68796 6.73681C7.69436 6.73747 7.70077 6.73818 7.70713 6.73867C7.71074 6.73895 7.71436 6.73906 7.71808 6.73928C7.72449 6.73966 7.7309 6.7401 7.73725 6.74032C7.7407 6.74032 7.7441 6.74032 7.74749 6.74032C7.75396 6.74032 7.76042 6.74032 7.76677 6.74032C7.76995 6.74032 7.77313 6.74032 7.77636 6.74032C7.78282 6.74032 7.78939 6.74005 7.7958 6.73972L7.80451 6.73906C7.81114 6.73862 7.81771 6.73818 7.82428 6.73758L7.83234 6.73664C7.83902 6.73588 7.8457 6.73516 7.85222 6.73423L7.8595 6.73308C7.86624 6.73203 7.87298 6.73094 7.87966 6.72973L7.8864 6.72836C7.89313 6.72704 7.89987 6.72567 7.9065 6.72413L7.91263 6.72259C7.91942 6.72095 7.92616 6.71924 7.93284 6.71743L7.93832 6.71573C7.94511 6.71381 7.95185 6.71183 7.95848 6.70964L7.96341 6.70799C7.97025 6.70569 7.97704 6.70338 7.98373 6.70086L7.98794 6.69927C7.99479 6.69663 8.00164 6.69378 8.00843 6.69114L8.01199 6.68955C8.01889 6.68659 8.02574 6.68357 8.03247 6.68044L8.03554 6.6789C8.04244 6.67566 8.04929 6.67231 8.05597 6.6688L8.05855 6.66743C8.06539 6.66386 8.07218 6.66018 8.07892 6.65645L8.08106 6.65519C8.08785 6.65124 8.09459 6.64729 8.10127 6.64311L8.10291 6.64207C8.1097 6.63779 8.11639 6.63343 8.12296 6.62901L8.12422 6.62813C8.13097 6.62356 8.1376 6.61889 8.1441 6.61413L8.14498 6.61353C8.15162 6.60866 8.15818 6.60367 8.16464 6.59854L8.16524 6.59805C8.17176 6.59289 8.17822 6.58762 8.18452 6.58224H8.18485C8.19128 6.57679 8.19761 6.5713 8.20386 6.56578C8.21649 6.55407 8.2287 6.54208 8.2405 6.52982Z" />
              </mask>
              <path d="M8.2405 6.52982C8.18332 6.41719 8.05937 6.33447 7.77094 6.34918C7.32564 6.37196 7.13371 5.8862 7.26812 5.6207C7.48015 5.20179 8.01927 4.67974 8.47367 4.40651C8.92806 4.13327 9.41263 3.70838 9.38261 3.16229C9.3526 2.6162 8.9159 2.27567 8.51606 2.25114C8.11622 2.2266 8.01927 2.60325 7.99506 2.94323C7.98526 3.08111 8.00542 3.19023 8.03275 3.27256C8.03981 3.26872 8.04682 3.26455 8.05367 3.26016L8.05471 3.25944C8.06123 3.25522 8.06764 3.25066 8.07394 3.24589L8.07602 3.24429C8.08193 3.23968 8.08774 3.2348 8.09344 3.22969C8.09448 3.22882 8.09552 3.22788 8.0965 3.2269C8.10198 3.22201 8.10707 3.21685 8.11211 3.21153L8.116 3.20735C8.12077 3.2022 8.12537 3.19676 8.12991 3.19089C8.13139 3.18902 8.13287 3.18716 8.1343 3.1854C8.13851 3.17991 8.14262 3.17442 8.14656 3.16855C8.14821 3.16613 8.1498 3.16366 8.15138 3.16119C8.155 3.1557 8.15856 3.14978 8.16201 3.14374C8.16371 3.14077 8.16535 3.13759 8.16699 3.13452C8.17012 3.1287 8.17318 3.12277 8.17609 3.11662C8.17778 3.11295 8.17937 3.10916 8.18102 3.10565C8.18365 3.09961 8.18649 3.09357 8.18863 3.08726C8.19033 3.08292 8.19181 3.07837 8.19334 3.07392C8.19548 3.06777 8.19761 3.06162 8.19958 3.05526C8.20112 3.05015 8.20243 3.04483 8.20386 3.03956C8.2055 3.0333 8.20725 3.02715 8.20873 3.02062C8.21021 3.01409 8.2112 3.00855 8.21235 3.00245C8.2135 2.99636 8.21487 2.98994 8.21596 2.98341C8.21706 2.97688 8.21788 2.96941 8.21875 2.96233C8.21963 2.95525 8.22045 2.94998 8.22111 2.94356C8.22188 2.9356 8.22237 2.92709 8.22292 2.91897C8.2233 2.91293 8.22385 2.90711 8.22407 2.90091C8.22451 2.89109 8.22451 2.88088 8.22456 2.87067C8.22456 2.86556 8.22456 2.86068 8.22456 2.85552C8.22456 2.83987 8.22379 2.82379 8.22281 2.80716C8.21328 2.65506 8.28202 2.58887 8.38094 2.58799C8.40453 2.58799 8.42803 2.59096 8.45088 2.59683C8.4701 2.60163 8.48895 2.60782 8.5073 2.61532C8.52006 2.62054 8.53304 2.6263 8.54602 2.63305C8.55254 2.63635 8.55906 2.63981 8.56563 2.64343C8.57866 2.65067 8.59181 2.65858 8.6049 2.66714C8.61147 2.67142 8.61799 2.67587 8.62456 2.68048C8.64412 2.69425 8.66362 2.7094 8.68273 2.72593C8.70185 2.74245 8.72063 2.76018 8.73887 2.77917C8.75103 2.79183 8.7629 2.80504 8.77447 2.8188C8.81019 2.86105 8.84162 2.90676 8.8683 2.95525C8.87739 2.97175 8.88594 2.98868 8.89393 3.00602C8.90601 3.03228 8.9166 3.0592 8.92565 3.08665C8.97226 3.22599 8.97418 3.37645 8.93112 3.51693C8.87947 3.68812 8.68903 3.89346 8.44529 4.10682C8.43368 4.11695 8.42196 4.12712 8.41013 4.13733C8.26805 4.25963 8.10992 4.38433 7.95163 4.50591L7.87254 4.56662C7.77225 4.64346 7.67306 4.71855 7.57885 4.79117C7.40764 5.13884 7.15538 5.44008 6.84342 5.66939C6.79413 5.9362 6.87081 6.22322 7.09373 6.44272C7.12015 6.46868 7.14798 6.49316 7.17709 6.51605C7.24006 6.56536 7.30798 6.60796 7.37975 6.64317C7.39142 6.64899 7.40308 6.65453 7.41459 6.65964C7.41842 6.66139 7.4222 6.66287 7.42598 6.66458C7.4337 6.66798 7.44142 6.67138 7.44904 6.67457C7.4532 6.67627 7.45731 6.6778 7.46147 6.67945C7.46865 6.6823 7.47588 6.68494 7.483 6.68785C7.48743 6.6895 7.49176 6.69092 7.49614 6.69246C7.50293 6.69487 7.50973 6.69734 7.51646 6.69954C7.52095 6.70102 7.52545 6.70234 7.52994 6.70371C7.53646 6.70574 7.54297 6.70788 7.54944 6.70975C7.55387 6.71101 7.55825 6.71205 7.56269 6.71326C7.5691 6.71502 7.57562 6.71683 7.58197 6.71837C7.58619 6.71941 7.59035 6.72029 7.59451 6.72122C7.60103 6.7227 7.6076 6.72429 7.61401 6.72561C7.61812 6.72643 7.62217 6.72709 7.62628 6.72781C7.63269 6.72901 7.63915 6.73028 7.64556 6.73132C7.64956 6.73198 7.65356 6.73247 7.65756 6.73302C7.66391 6.73395 7.67032 6.73494 7.67656 6.73566C7.6804 6.73615 7.68418 6.73642 7.68796 6.73681C7.69436 6.73747 7.70077 6.73818 7.70713 6.73867C7.71074 6.73895 7.71436 6.73906 7.71808 6.73928C7.72449 6.73966 7.7309 6.7401 7.73725 6.74032C7.7407 6.74032 7.7441 6.74032 7.74749 6.74032C7.75396 6.74032 7.76042 6.74032 7.76677 6.74032C7.76995 6.74032 7.77313 6.74032 7.77636 6.74032C7.78282 6.74032 7.78939 6.74005 7.7958 6.73972L7.80451 6.73906C7.81114 6.73862 7.81771 6.73818 7.82428 6.73758L7.83234 6.73664C7.83902 6.73588 7.8457 6.73516 7.85222 6.73423L7.8595 6.73308C7.86624 6.73203 7.87298 6.73094 7.87966 6.72973L7.8864 6.72836C7.89313 6.72704 7.89987 6.72567 7.9065 6.72413L7.91263 6.72259C7.91942 6.72095 7.92616 6.71924 7.93284 6.71743L7.93832 6.71573C7.94511 6.71381 7.95185 6.71183 7.95848 6.70964L7.96341 6.70799C7.97025 6.70569 7.97704 6.70338 7.98373 6.70086L7.98794 6.69927C7.99479 6.69663 8.00164 6.69378 8.00843 6.69114L8.01199 6.68955C8.01889 6.68659 8.02574 6.68357 8.03247 6.68044L8.03554 6.6789C8.04244 6.67566 8.04929 6.67231 8.05597 6.6688L8.05855 6.66743C8.06539 6.66386 8.07218 6.66018 8.07892 6.65645L8.08106 6.65519C8.08785 6.65124 8.09459 6.64729 8.10127 6.64311L8.10291 6.64207C8.1097 6.63779 8.11639 6.63343 8.12296 6.62901L8.12422 6.62813C8.13097 6.62356 8.1376 6.61889 8.1441 6.61413L8.14498 6.61353C8.15162 6.60866 8.15818 6.60367 8.16464 6.59854L8.16524 6.59805C8.17176 6.59289 8.17822 6.58762 8.18452 6.58224H8.18485C8.19128 6.57679 8.19761 6.5713 8.20386 6.56578C8.21649 6.55407 8.2287 6.54208 8.2405 6.52982Z" fill="#B7791D" />
              <path d="M8.2405 6.52982C8.18332 6.41719 8.05937 6.33447 7.77094 6.34918C7.32564 6.37196 7.13371 5.8862 7.26812 5.6207C7.48015 5.20179 8.01927 4.67974 8.47367 4.40651C8.92806 4.13327 9.41263 3.70838 9.38261 3.16229C9.3526 2.6162 8.9159 2.27567 8.51606 2.25114C8.11622 2.2266 8.01927 2.60325 7.99506 2.94323C7.98526 3.08111 8.00542 3.19023 8.03275 3.27256C8.03981 3.26872 8.04682 3.26455 8.05367 3.26016L8.05471 3.25944C8.06123 3.25522 8.06764 3.25066 8.07394 3.24589L8.07602 3.24429C8.08193 3.23968 8.08774 3.2348 8.09344 3.22969C8.09448 3.22882 8.09552 3.22788 8.0965 3.2269C8.10198 3.22201 8.10707 3.21685 8.11211 3.21153L8.116 3.20735C8.12077 3.2022 8.12537 3.19676 8.12991 3.19089C8.13139 3.18902 8.13287 3.18716 8.1343 3.1854C8.13851 3.17991 8.14262 3.17442 8.14656 3.16855C8.14821 3.16613 8.1498 3.16366 8.15138 3.16119C8.155 3.1557 8.15856 3.14978 8.16201 3.14374C8.16371 3.14077 8.16535 3.13759 8.16699 3.13452C8.17012 3.1287 8.17318 3.12277 8.17609 3.11662C8.17778 3.11295 8.17937 3.10916 8.18102 3.10565C8.18365 3.09961 8.18649 3.09357 8.18863 3.08726C8.19033 3.08292 8.19181 3.07837 8.19334 3.07392C8.19548 3.06777 8.19761 3.06162 8.19958 3.05526C8.20112 3.05015 8.20243 3.04483 8.20386 3.03956C8.2055 3.0333 8.20725 3.02715 8.20873 3.02062C8.21021 3.01409 8.2112 3.00855 8.21235 3.00245C8.2135 2.99636 8.21487 2.98994 8.21596 2.98341C8.21706 2.97688 8.21788 2.96941 8.21875 2.96233C8.21963 2.95525 8.22045 2.94998 8.22111 2.94356C8.22188 2.9356 8.22237 2.92709 8.22292 2.91897C8.2233 2.91293 8.22385 2.90711 8.22407 2.90091C8.22451 2.89109 8.22451 2.88088 8.22456 2.87067C8.22456 2.86556 8.22456 2.86068 8.22456 2.85552C8.22456 2.83987 8.22379 2.82379 8.22281 2.80716C8.21328 2.65506 8.28202 2.58887 8.38094 2.58799C8.40453 2.58799 8.42803 2.59096 8.45088 2.59683C8.4701 2.60163 8.48895 2.60782 8.5073 2.61532C8.52006 2.62054 8.53304 2.6263 8.54602 2.63305C8.55254 2.63635 8.55906 2.63981 8.56563 2.64343C8.57866 2.65067 8.59181 2.65858 8.6049 2.66714C8.61147 2.67142 8.61799 2.67587 8.62456 2.68048C8.64412 2.69425 8.66362 2.7094 8.68273 2.72593C8.70185 2.74245 8.72063 2.76018 8.73887 2.77917C8.75103 2.79183 8.7629 2.80504 8.77447 2.8188C8.81019 2.86105 8.84162 2.90676 8.8683 2.95525C8.87739 2.97175 8.88594 2.98868 8.89393 3.00602C8.90601 3.03228 8.9166 3.0592 8.92565 3.08665C8.97226 3.22599 8.97418 3.37645 8.93112 3.51693C8.87947 3.68812 8.68903 3.89346 8.44529 4.10682C8.43368 4.11695 8.42196 4.12712 8.41013 4.13733C8.26805 4.25963 8.10992 4.38433 7.95163 4.50591L7.87254 4.56662C7.77225 4.64346 7.67306 4.71855 7.57885 4.79117C7.40764 5.13884 7.15538 5.44008 6.84342 5.66939C6.79413 5.9362 6.87081 6.22322 7.09373 6.44272C7.12015 6.46868 7.14798 6.49316 7.17709 6.51605C7.24006 6.56536 7.30798 6.60796 7.37975 6.64317C7.39142 6.64899 7.40308 6.65453 7.41459 6.65964C7.41842 6.66139 7.4222 6.66287 7.42598 6.66458C7.4337 6.66798 7.44142 6.67138 7.44904 6.67457C7.4532 6.67627 7.45731 6.6778 7.46147 6.67945C7.46865 6.6823 7.47588 6.68494 7.483 6.68785C7.48743 6.6895 7.49176 6.69092 7.49614 6.69246C7.50293 6.69487 7.50973 6.69734 7.51646 6.69954C7.52095 6.70102 7.52545 6.70234 7.52994 6.70371C7.53646 6.70574 7.54297 6.70788 7.54944 6.70975C7.55387 6.71101 7.55825 6.71205 7.56269 6.71326C7.5691 6.71502 7.57562 6.71683 7.58197 6.71837C7.58619 6.71941 7.59035 6.72029 7.59451 6.72122C7.60103 6.7227 7.6076 6.72429 7.61401 6.72561C7.61812 6.72643 7.62217 6.72709 7.62628 6.72781C7.63269 6.72901 7.63915 6.73028 7.64556 6.73132C7.64956 6.73198 7.65356 6.73247 7.65756 6.73302C7.66391 6.73395 7.67032 6.73494 7.67656 6.73566C7.6804 6.73615 7.68418 6.73642 7.68796 6.73681C7.69436 6.73747 7.70077 6.73818 7.70713 6.73867C7.71074 6.73895 7.71436 6.73906 7.71808 6.73928C7.72449 6.73966 7.7309 6.7401 7.73725 6.74032C7.7407 6.74032 7.7441 6.74032 7.74749 6.74032C7.75396 6.74032 7.76042 6.74032 7.76677 6.74032C7.76995 6.74032 7.77313 6.74032 7.77636 6.74032C7.78282 6.74032 7.78939 6.74005 7.7958 6.73972L7.80451 6.73906C7.81114 6.73862 7.81771 6.73818 7.82428 6.73758L7.83234 6.73664C7.83902 6.73588 7.8457 6.73516 7.85222 6.73423L7.8595 6.73308C7.86624 6.73203 7.87298 6.73094 7.87966 6.72973L7.8864 6.72836C7.89313 6.72704 7.89987 6.72567 7.9065 6.72413L7.91263 6.72259C7.91942 6.72095 7.92616 6.71924 7.93284 6.71743L7.93832 6.71573C7.94511 6.71381 7.95185 6.71183 7.95848 6.70964L7.96341 6.70799C7.97025 6.70569 7.97704 6.70338 7.98373 6.70086L7.98794 6.69927C7.99479 6.69663 8.00164 6.69378 8.00843 6.69114L8.01199 6.68955C8.01889 6.68659 8.02574 6.68357 8.03247 6.68044L8.03554 6.6789C8.04244 6.67566 8.04929 6.67231 8.05597 6.6688L8.05855 6.66743C8.06539 6.66386 8.07218 6.66018 8.07892 6.65645L8.08106 6.65519C8.08785 6.65124 8.09459 6.64729 8.10127 6.64311L8.10291 6.64207C8.1097 6.63779 8.11639 6.63343 8.12296 6.62901L8.12422 6.62813C8.13097 6.62356 8.1376 6.61889 8.1441 6.61413L8.14498 6.61353C8.15162 6.60866 8.15818 6.60367 8.16464 6.59854L8.16524 6.59805C8.17176 6.59289 8.17822 6.58762 8.18452 6.58224H8.18485C8.19128 6.57679 8.19761 6.5713 8.20386 6.56578C8.21649 6.55407 8.2287 6.54208 8.2405 6.52982Z" stroke="#B7791D" strokeWidth="0.36" mask="url(#path-4-outside-2_1_182)" />
              <path d="M5.06749 6.11137L5.07578 6.02175C5.07353 6.02154 5.07133 6.02134 5.06917 6.02114C5.05875 6.02019 5.04927 6.01932 5.03971 6.01827L5.03971 6.01826L5.03924 6.01822L5.01694 6.0156L5.01694 6.0156L5.01654 6.01555C5.00425 6.01414 4.99255 6.01274 4.98113 6.01117L4.98113 6.01116L4.98039 6.01107L4.95862 6.00794L4.95853 6.00793L4.92223 6.00261L4.90153 5.99905C4.90153 5.99905 4.90153 5.99904 4.90153 5.99904C4.90152 5.99904 4.90151 5.99904 4.90151 5.99904C4.88889 5.99687 4.8768 5.99473 4.86519 5.99248L4.86519 5.99248L4.86461 5.99237L4.84497 5.98851L4.84497 5.98851L4.84462 5.98844L4.80693 5.98063L4.80693 5.98063L4.78846 5.9765L4.78846 5.97649L4.78784 5.97636C4.77516 5.9735 4.76254 5.97053 4.74986 5.96744L4.73168 5.96288C4.71881 5.9596 4.70592 5.9562 4.69304 5.95267L4.67612 5.94798C4.66294 5.94428 4.64971 5.94038 4.63621 5.93633L4.62113 5.93171C4.60742 5.92746 4.59377 5.92307 4.58017 5.91854L4.58009 5.91851L4.56676 5.91408L4.5512 5.90872L4.53517 5.9032L4.41586 5.86211V5.98829L4.41586 6.24527L4.41586 6.2454C4.41604 6.36924 4.46469 6.48819 4.55152 6.57609C4.63837 6.66404 4.75637 6.71372 4.87969 6.71388H4.87981H5.91256H5.91258C6.03597 6.71385 6.15406 6.66419 6.24096 6.57621C6.32782 6.48826 6.37645 6.36922 6.3765 6.24531V6.24527V5.96582V5.83444L6.25399 5.8819C5.99861 5.98083 5.72751 6.03148 5.45413 6.03136L5.27756 6.03109H5.27742C5.25754 6.03109 5.23758 6.03077 5.21749 6.03024L5.21749 6.0302H5.2151C5.21243 6.0302 5.21158 6.03014 5.20999 6.03003C5.20821 6.02991 5.20551 6.02972 5.19831 6.02948L5.1953 6.11941L5.19847 6.02949C5.18439 6.02899 5.17112 6.02852 5.15803 6.02786L5.13578 6.02636L5.13578 6.02636L5.13535 6.02633C5.12265 6.02557 5.11053 6.02479 5.09863 6.02382L5.09863 6.02382L5.09817 6.02378C5.09366 6.02344 5.08982 6.02307 5.08521 6.02263C5.0824 6.02236 5.07929 6.02207 5.07557 6.02173L5.06749 6.11137ZM5.06749 6.11137C5.07019 6.11161 5.07287 6.11187 5.07556 6.11212C5.08081 6.11262 5.08605 6.11312 5.09132 6.11352M5.06749 6.11137C5.06539 6.11118 5.06329 6.11098 5.06118 6.11079C5.05074 6.10983 5.04031 6.10887 5.02987 6.10773L5.00626 6.10496C4.99377 6.10353 4.98128 6.10204 4.96885 6.10033C4.96366 6.09966 4.95844 6.09888 4.95323 6.09811C4.95073 6.09774 4.94823 6.09737 4.94573 6.09701L5.09132 6.11352M5.09132 6.11352C5.10419 6.11457 5.11706 6.1154 5.12998 6.11617L5.09132 6.11352Z" fill="#FFC44E" stroke="#FFC44E" strokeWidth="0.18" />
              <path d="M6.07051 4.60335L6.07049 4.6034C5.86937 5.0725 5.53317 5.46482 5.1102 5.7474C4.86142 5.91389 4.59906 5.98847 4.3326 6.01094L4.32473 6.02956C4.32469 6.02954 4.32465 6.02953 4.32461 6.02951C4.31611 6.02592 4.30763 6.02229 4.29917 6.01861C4.28889 6.01416 4.27861 6.00964 4.26833 6.00506L4.26835 6.00495L6.07051 4.60335ZM6.07051 4.60335C6.40748 3.816 6.52095 2.9243 6.48684 2.07135L6.48301 1.97579L6.38786 1.98541C6.07557 2.01696 5.72679 2.03466 5.35851 2.03466C5.04263 2.03466 4.74097 2.02169 4.46446 1.99802M6.07051 4.60335L4.46446 1.99802M4.46446 1.99802L4.40947 1.9932C4.40942 1.9932 4.40936 1.99319 4.4093 1.99319C4.31833 1.98485 4.23042 1.97539 4.14558 1.96481L4.09515 1.95834L4.46446 1.99802ZM3.72219 1.89791L3.7224 1.89795C3.80813 1.91486 3.89973 1.93047 3.99652 1.9446L3.72219 1.89791ZM3.72219 1.89791C3.69362 1.89234 3.6658 1.88661 3.63875 1.88071L3.63863 1.88068M3.72219 1.89791L3.63863 1.88068M3.63863 1.88068C3.59777 1.87183 3.55855 1.86269 3.52096 1.85328M3.63863 1.88068L3.52096 1.85328M3.52096 1.85328C3.49584 1.84699 3.47147 1.84059 3.44784 1.83408L3.52096 1.85328ZM3.03195 4.77482C3.21947 5.18304 3.51385 5.53311 3.88401 5.78811L3.44783 1.83408C3.41243 1.82432 3.37879 1.81432 3.34689 1.80409C3.31505 1.79387 3.28514 1.78344 3.25713 1.77282L3.25713 1.77282L3.2565 1.77258C3.21451 1.75701 3.17343 1.73909 3.13346 1.7189C3.07625 1.68959 3.03783 1.66174 3.01478 1.63734C2.99212 1.61335 2.98941 1.59845 2.98941 1.5918H2.89941H2.80941L2.80941 3.75509C2.80941 3.75511 2.80941 3.75512 2.80941 3.75513C2.80925 4.10705 2.88515 4.45485 3.03193 4.77478L3.03195 4.77482ZM4.09512 1.95833C4.06174 1.9539 4.02888 1.94932 3.99653 1.94461L4.09512 1.95833ZM3.2985 2.35448C3.30082 2.33251 3.30315 2.31423 3.30538 2.2991C3.30789 2.29983 3.31046 2.30058 3.31307 2.30133C3.37428 2.31904 3.46202 2.34273 3.56893 2.36695C3.78236 2.4153 4.07411 2.46618 4.38479 2.47504C4.41773 2.47598 4.4537 2.49436 4.49043 2.55889C4.52793 2.62476 4.55729 2.72536 4.57552 2.85599C4.61174 3.11566 4.60021 3.46508 4.55144 3.81501C4.50269 4.16481 4.41786 4.50701 4.31201 4.75259C4.2588 4.87603 4.20286 4.96894 4.14812 5.02654C4.10367 5.07332 4.06843 5.08885 4.04075 5.09011C4.03756 5.08753 4.03399 5.08461 4.03006 5.08135C4.01013 5.06478 3.98102 5.03936 3.94571 5.00499C3.87506 4.93622 3.77984 4.83187 3.68364 4.69112C3.49151 4.41003 3.29528 3.98363 3.28272 3.40319C3.26974 2.80334 3.28286 2.50319 3.2985 2.35448Z" fill="#FAB829" stroke="#FAB829" strokeWidth="0.18" />
              <path d="M3.49882 1.93041C3.53746 1.94002 3.57759 1.94937 3.61922 1.95844M3.49882 1.93041C3.47302 1.924 3.44797 1.91742 3.42367 1.91068M3.49882 1.93041L3.47711 2.01775M3.49882 1.93041L3.47711 2.01775M3.61922 1.95844L3.22506 1.84703C3.25469 1.85829 3.28606 1.86916 3.31919 1.87965M3.61922 1.95844C3.64703 1.96445 3.67549 1.97031 3.7046 1.97603C3.79217 1.99324 3.88521 2.00909 3.98301 2.0234L3.61922 1.95844ZM3.42367 1.91068C3.38711 1.90063 3.35229 1.89029 3.31919 1.87965M3.42367 1.91068L3.39981 1.99746C3.36213 1.9871 3.32607 1.97639 3.29166 1.96533L3.31919 1.87965M3.42367 1.91068L3.39962 1.99741C3.42473 2.00437 3.45055 2.01115 3.47708 2.01774L3.19344 1.93129M3.31919 1.87965L3.29202 1.96545C3.25756 1.95454 3.22469 1.94316 3.19344 1.93129M3.19344 1.93129C3.14516 1.91339 3.09793 1.89277 3.05197 1.86955L3.05156 1.86935L3.05156 1.86934C2.98445 1.83501 2.92634 1.79605 2.88392 1.75116C2.8411 1.70585 2.80941 1.64897 2.80941 1.58209C2.80941 1.5152 2.84112 1.45832 2.88394 1.41301C2.92636 1.36812 2.98446 1.32915 3.05156 1.2948C3.186 1.22597 3.37465 1.16662 3.60029 1.11775C4.05304 1.01971 4.67423 0.959805 5.35745 0.959805C6.04067 0.959805 6.66188 1.01971 7.11464 1.11775C7.34028 1.16662 7.52894 1.22597 7.66339 1.2948C7.73048 1.32915 7.78859 1.36812 7.83102 1.41301C7.87383 1.45831 7.90554 1.5152 7.90554 1.58209V1.58283C7.90545 1.59315 7.90459 1.60344 7.90295 1.61362L3.19344 1.93129ZM3.47711 2.01775C3.51665 2.02759 3.55764 2.03713 3.60007 2.04638L3.60021 2.04641M3.47711 2.01775L3.60021 2.04641M3.60021 2.04641C3.62859 2.05254 3.65761 2.05852 3.68726 2.06434M3.60021 2.04641L3.68726 2.06434M4.12273 2.13315L4.1225 2.13312L4.07095 2.12651L4.12273 2.13315ZM4.12273 2.13315C4.2095 2.14395 4.29937 2.15361 4.39232 2.16215L4.39269 2.16218M4.12273 2.13315L4.39269 2.16218M4.39269 2.16218L4.44819 2.16704L4.44838 2.16706M4.39269 2.16218L4.44838 2.16706M4.44838 2.16706C4.73019 2.19117 5.03678 2.20432 5.35734 2.20432C5.73105 2.20432 6.08561 2.18638 6.40428 2.1542C6.642 2.13019 6.86012 2.09816 7.05119 2.05961L7.05181 2.05948M4.44838 2.16706L7.05181 2.05948M7.05181 2.05948L7.05358 2.05911L7.05181 2.05948ZM7.17819 2.03206L7.1781 2.03208L7.17437 2.03294L7.17432 2.03295L7.17819 2.03206ZM7.17819 2.03206C7.21675 2.02308 7.25407 2.01372 7.29014 2.00394L7.29386 2.00295L7.29404 2.0029M7.17819 2.03206L7.29404 2.0029M7.29404 2.0029C7.32963 1.99335 7.36386 1.9835 7.39675 1.97335L7.40014 1.97234L7.40014 1.97235M7.29404 2.0029L7.40014 1.97235M7.40014 1.97235L7.40142 1.97195M7.40014 1.97235L7.40142 1.97195M7.40142 1.97195C7.41638 1.96725 7.43109 1.96251 7.44553 1.95776L7.44877 1.95671L7.44877 1.95672M7.40142 1.97195L7.44877 1.95672M7.44877 1.95672L7.44971 1.9564M7.44877 1.95672L7.44971 1.9564M7.44971 1.9564C7.46505 1.95126 7.48013 1.94607 7.49492 1.94083L7.49492 1.94084M7.44971 1.9564L7.49492 1.94084M7.49492 1.94084L7.49609 1.94041M7.49492 1.94084L7.49609 1.94041M7.49609 1.94041L7.49826 1.9396C7.4984 1.93955 7.49854 1.9395 7.49867 1.93945C7.51217 1.9346 7.52537 1.92965 7.53826 1.92461L7.53882 1.92438M7.49609 1.94041L7.53882 1.92438M7.53882 1.92438L7.54369 1.92244C7.5438 1.92239 7.5439 1.92235 7.54401 1.92231C7.55776 1.91693 7.57118 1.91147 7.58427 1.90594L7.5843 1.90599M7.53882 1.92438L7.5843 1.90599M7.5843 1.90599L7.58665 1.9049M7.5843 1.90599L7.58665 1.9049M7.58665 1.9049C7.59879 1.89973 7.61037 1.89453 7.62137 1.88948L7.62138 1.88948L7.62232 1.88904L7.62836 1.88618C7.62841 1.88616 7.62845 1.88613 7.6285 1.88611C7.65236 1.87493 7.67493 1.86339 7.69615 1.85149L7.69679 1.85113L7.70281 1.84768L7.70294 1.84761C7.71241 1.84218 7.72202 1.83646 7.73137 1.83056C7.73143 1.83053 7.73148 1.83049 7.73154 1.83046L7.727 1.82328L7.727 1.82328L7.68348 1.75437M7.58665 1.9049L7.79049 1.78827C7.79042 1.78834 7.79035 1.78839 7.79028 1.78844L7.78955 1.78906L7.78954 1.78904C7.78251 1.79472 7.77522 1.80032 7.76769 1.80586L7.76732 1.80613L7.76229 1.80979L7.76089 1.8108L7.76088 1.81078C7.75279 1.81643 7.74377 1.82266 7.73385 1.82904L7.7314 1.83062L7.73138 1.83058L7.72974 1.83157L7.68348 1.75437M7.68348 1.75437L7.68348 1.75436L7.68348 1.75437ZM3.68726 2.06434C3.77639 2.08186 3.87087 2.09795 3.96998 2.11245M3.68726 2.06434L3.96998 2.11245M3.96998 2.11245C4.00323 2.11732 4.03688 2.12201 4.07091 2.1265L3.96998 2.11245ZM7.79442 1.78506C7.80223 1.77858 7.80951 1.77213 7.81635 1.76575L7.81639 1.76579L7.81854 1.76364L7.82184 1.76035C7.8219 1.76029 7.82196 1.76023 7.82202 1.76017C7.82814 1.75412 7.83404 1.74787 7.83965 1.74145C7.83955 1.74156 7.83955 1.74156 7.84038 1.74065L7.84298 1.73764L7.843 1.73766C7.85043 1.72913 7.85684 1.72059 7.86219 1.71288L7.86225 1.71292L7.86423 1.7098L7.86581 1.70732C7.87011 1.70081 7.8741 1.69411 7.87778 1.68724C7.87944 1.68428 7.88077 1.68167 7.88167 1.67987L7.79442 1.78506ZM7.89859 1.63491C7.89968 1.63068 7.90063 1.62641 7.90145 1.62211L7.89859 1.63491ZM5.36238 1.31241C5.93904 1.31241 6.45884 1.35246 6.83253 1.41646C7.02011 1.44858 7.16656 1.48602 7.26405 1.5255C7.31321 1.5454 7.34472 1.56379 7.36243 1.57861C7.36392 1.57986 7.36524 1.58102 7.36641 1.58209C7.36524 1.58315 7.36392 1.58431 7.36243 1.58556C7.34472 1.60038 7.31319 1.61877 7.26402 1.63867C7.16652 1.67814 7.02004 1.71558 6.83245 1.74769C6.45873 1.81167 5.93893 1.85172 5.36238 1.85172C4.78582 1.85172 4.26601 1.81166 3.89227 1.74767C3.70468 1.71556 3.55819 1.67811 3.46068 1.63865C3.41151 1.61874 3.37998 1.60036 3.36226 1.58554C3.36078 1.5843 3.35947 1.58315 3.35831 1.58209C3.35947 1.58103 3.36079 1.57988 3.36227 1.57864C3.37999 1.56382 3.41152 1.54543 3.4607 1.52553C3.55823 1.48605 3.70473 1.4486 3.89234 1.41648C4.26609 1.35248 4.78591 1.31241 5.36238 1.31241Z" fill="#FFC44E" stroke="#FFC44E" strokeWidth="0.18" />
              <path d="M4.87305 6.53616C4.86324 6.53614 4.85344 6.5356 4.84368 6.53455L4.73642 6.52292L4.74422 6.63053C4.76544 6.92343 4.83927 7.91193 4.9075 8.43565L4.92114 8.54036L5.02237 8.5103L4.87305 6.53616ZM4.87305 6.53616H5.63937H5.72521L5.72927 6.62191C5.74564 6.96786 5.73929 7.32 5.6738 7.66637L4.87305 6.53616Z" fill="#FAB829" stroke="#FAB829" strokeWidth="0.18" />
              <path d="M5.5996 8.50143L5.5996 8.50143C5.6276 8.505 5.65558 8.50926 5.68324 8.51444L5.68405 8.51454L5.68566 8.51477L5.68617 8.51485L5.69653 8.51553L5.69639 8.51625C5.7248 8.52179 5.75335 8.52809 5.78139 8.53558L5.5996 8.50143ZM5.5996 8.50143L5.59919 8.50138L5.58825 8.50004L5.58791 8.49999C5.5252 8.49253 5.46211 8.48857 5.39895 8.48813L5.39895 8.48812H5.39832H5.39711C5.36632 8.48812 5.33491 8.48865 5.30342 8.49017M5.5996 8.50143L5.30342 8.49017M5.30342 8.49017H5.30168V8.49007L5.29754 8.49026C5.20198 8.49466 5.10706 8.50806 5.01408 8.53028L5.01408 8.53027L5.01342 8.53044C4.8513 8.57048 4.69355 8.64434 4.61739 8.77018L4.61738 8.77018L4.61705 8.77074C4.57158 8.8471 4.51409 8.91599 4.44668 8.97484L4.53438 9.128C4.5475 9.12362 4.56107 9.11935 4.57522 9.11516L4.58243 9.11303L4.58251 9.11301L4.61718 9.10315L4.6283 9.10019C4.6283 9.10019 4.6283 9.10019 4.6283 9.10019C4.63939 9.09724 4.65065 9.09436 4.66209 9.09157L4.66221 9.09154L4.6725 9.08901C4.70234 9.08183 4.73317 9.07516 4.76498 9.069L4.77346 9.06737L4.81316 9.06015L4.82538 9.05807L4.86459 9.05176L4.86463 9.05175L4.87566 9.05005C4.90931 9.04505 4.94357 9.04055 4.97843 9.03655L4.98781 9.03556L4.98781 9.03556L4.98824 9.03551L5.03084 9.03106L5.0309 9.03106L5.04472 9.02975L5.04479 9.02974L5.08625 9.02615L5.08625 9.02615L5.0867 9.02611L5.09841 9.02512C5.13369 9.02237 5.16928 9.02015 5.20518 9.01845C5.2084 9.0184 5.21119 9.01827 5.21309 9.01817L5.21796 9.01791L5.21796 9.01791L5.21848 9.01789C5.23262 9.01722 5.24689 9.0167 5.26156 9.01622L5.26159 9.01622L5.27606 9.01575L5.27611 9.01575L5.31877 9.01476H5.32979V9.01477L5.33107 9.01476C5.36795 9.01423 5.40495 9.01423 5.44183 9.01476L5.44183 9.01476H5.44311H5.45415L5.49682 9.01575L5.49688 9.01575L5.51138 9.01622L5.51138 9.01622C5.52602 9.0167 5.54034 9.01722 5.5544 9.01789L5.5544 9.01789L5.55494 9.01791L5.5661 9.01838C5.56618 9.01838 5.56626 9.01838 5.56634 9.01839C5.60276 9.0201 5.63892 9.02235 5.67481 9.02514L5.68638 9.02612L5.68673 9.02614L5.72815 9.02975L5.72818 9.02975L5.74196 9.03105L5.74209 9.03106L5.78513 9.0355L5.78513 9.03549L5.79471 9.03656C5.79474 9.03656 5.79476 9.03656 5.79479 9.03657C5.82963 9.04054 5.86387 9.04504 5.89752 9.05007L5.90841 9.05179L5.90841 9.05179L5.90891 9.05187C5.92181 9.05383 5.93464 9.05591 5.94762 9.05807L5.95989 9.06015L5.99945 9.06736L5.99961 9.06739L6.00809 9.06899C6.00817 9.069 6.00825 9.06902 6.00833 9.06903C6.04006 9.0752 6.07087 9.08187 6.10076 9.08903L6.1111 9.09152L6.14511 9.10023L6.14523 9.10026L6.15628 9.10324C6.15631 9.10325 6.15633 9.10325 6.15635 9.10326L5.30342 8.49017ZM6.24977 8.94278L6.2512 8.94323L6.23023 9.00863L6.24977 8.94278ZM6.24977 8.94278L6.24977 8.94279L6.24977 8.94278ZM6.19028 9.1129L6.19501 9.11427C6.19613 9.11459 6.19634 9.11466 6.19625 9.11463L6.19624 9.11464L6.19768 9.11508C6.21156 9.11927 6.22533 9.12362 6.23899 9.12812L6.32635 8.97485C6.25893 8.91598 6.20144 8.84709 6.15595 8.77072L6.15595 8.77072L6.15562 8.77017C6.0825 8.64939 5.93511 8.5766 5.78144 8.5356L6.19028 9.1129Z" fill="#976316" stroke="#976316" strokeWidth="0.18" />
              <path d="M6.29223 8.96215C6.43829 9.01163 6.56797 9.08034 6.646 9.17671L6.29231 8.96217C6.29228 8.96216 6.29226 8.96216 6.29223 8.96215ZM6.29223 8.96215C6.27823 8.95738 6.26397 8.95278 6.24946 8.94833C6.24711 8.94747 6.24515 8.94683 6.2438 8.94639L6.23889 8.9449C6.2261 8.94101 6.21331 8.93734 6.20058 8.93381V8.93381L6.20039 8.93376L6.18863 8.93053V8.93053L6.18836 8.93046C6.17609 8.92713 6.16369 8.92389 6.15117 8.92076L6.15117 8.92076L6.15076 8.92066L6.13983 8.91798L6.13964 8.91793C6.10712 8.91003 6.07374 8.90268 6.03951 8.89587L6.03951 8.89587L6.03892 8.89576L6.02979 8.89401L6.02963 8.89398L5.98825 8.88629L5.98825 8.88629L5.98747 8.88615L5.97446 8.88391L5.97422 8.88387C5.96072 8.88158 5.94698 8.87931 5.93297 8.87714L5.9219 8.87536L5.9219 8.87536L5.92109 8.87524C5.88533 8.86983 5.84904 8.86497 5.81221 8.86066L5.81221 8.86066L5.8117 8.8606L5.803 8.85964L5.80301 8.85962L5.80131 8.85944L5.75665 8.85474L5.75634 8.85471L5.74207 8.85334L5.74203 8.85334C5.72748 8.85195 5.71286 8.85065 5.69818 8.84945M6.29223 8.96215L5.25336 8.83875L5.25637 8.9287M5.69818 8.84945L5.69853 8.84948L5.69085 8.93915L5.69818 8.84945ZM5.69818 8.84945L5.68639 8.84844L5.68639 8.84844L5.68582 8.8484C5.64803 8.8454 5.60996 8.84299 5.57161 8.84116V8.84116L5.57112 8.84113L5.56003 8.84067L5.55568 8.93056M5.55568 8.93056L5.55948 8.84064L5.55975 8.84065C5.54448 8.83992 5.52925 8.83936 5.51434 8.83886M5.55568 8.93056C5.54097 8.92985 5.52616 8.9293 5.51135 8.92881M5.55568 8.93056L5.51135 8.92881M5.51434 8.83886L5.50088 8.83829L5.50088 8.83828L5.49975 8.83825L5.45442 8.83718L5.45442 8.83717H5.45275H5.44138M5.51434 8.83886L5.51514 8.83889L5.51135 8.92881M5.51434 8.83886L5.51135 8.92881M5.44138 8.83717C5.40323 8.83662 5.36498 8.83662 5.32683 8.83717M5.44138 8.83717C5.4416 8.83717 5.44182 8.83717 5.44203 8.83718L5.44073 8.92717M5.44138 8.83717H5.44073V8.92717M5.32683 8.83717H5.31551V8.83715L5.31374 8.83719L5.26868 8.83824L5.26868 8.83824L5.26812 8.83826L5.25339 8.83875L5.25637 8.9287M5.32683 8.83717H5.32748V8.92717M5.32683 8.83717C5.32661 8.83717 5.32639 8.83717 5.32617 8.83718L5.32748 8.92717M5.25637 8.9287C5.2415 8.92919 5.22674 8.92974 5.21198 8.93045M5.25637 8.9287L5.21198 8.93045M5.21198 8.93045H5.21198C5.2081 8.93045 5.20422 8.93045 5.2004 8.93094M5.21198 8.93045L5.1961 8.84105L5.2004 8.93094M5.2004 8.93094C5.16294 8.93273 5.12579 8.93509 5.08895 8.93801L4.47502 8.96196L4.47555 8.96177L4.47555 8.96178C4.4907 8.95672 4.50591 8.95185 4.5213 8.94712L4.52194 8.94692L4.52194 8.94692L4.52942 8.94468L4.52951 8.94465C4.54195 8.94094 4.55455 8.9373 4.56716 8.93375L4.56798 8.93352L4.56798 8.93352L4.57968 8.93035L4.57993 8.93028L4.61685 8.92068L4.61698 8.92065L4.62748 8.91802L4.62793 8.91791L4.62793 8.91791C4.66061 8.90991 4.69413 8.90252 4.72848 8.89574L4.72866 8.89571L4.73762 8.89396L4.73812 8.89386L4.73812 8.89386L4.77961 8.88617L4.78029 8.88605L4.78029 8.88605L4.79324 8.88381L4.79339 8.88378C4.80701 8.88145 4.82079 8.87919 4.83472 8.87701C4.83473 8.87701 4.83474 8.877 4.83475 8.877L4.84616 8.87521L4.84661 8.87514L4.84661 8.87514C4.88245 8.86968 4.91882 8.86482 4.9557 8.86054L4.95644 8.86045L4.95644 8.86045L4.96617 8.85941L4.96661 8.85936L5.011 8.85464L5.01134 8.8546L5.02555 8.85324L5.02565 8.85323C5.04016 8.85185 5.05474 8.85056 5.06939 8.84936C5.06946 8.84935 5.06954 8.84935 5.06961 8.84934L5.0812 8.84834L5.08184 8.84828L5.08184 8.84829C5.11877 8.84536 5.15599 8.84299 5.1935 8.84117C5.192 8.84131 5.19046 8.84148 5.1889 8.84168L5.2004 8.93094ZM5.32748 8.92717C5.36519 8.92662 5.40301 8.92662 5.44073 8.92717M5.32748 8.92717H5.31551H5.44073M5.44073 8.92717H5.45275H5.44073ZM5.51135 8.92881L5.49708 8.92821L5.51135 8.92881ZM5.56488 9.36945L5.56482 9.36946C5.4076 9.39546 5.13704 9.40637 4.88809 9.39931C4.76422 9.3958 4.64832 9.3879 4.55686 9.37576C4.51104 9.36968 4.47297 9.36275 4.44385 9.35527C4.43076 9.35191 4.42032 9.34866 4.41231 9.34567C4.41618 9.34129 4.42159 9.33591 4.42914 9.3297C4.47806 9.28941 4.58333 9.24242 4.74987 9.2254C4.92053 9.20797 5.18092 9.20666 5.41437 9.21454C5.53056 9.21847 5.6386 9.22462 5.72378 9.23196C5.76643 9.23563 5.80264 9.23954 5.83093 9.24351C5.83543 9.24415 5.83961 9.24476 5.84347 9.24536C5.84326 9.2456 5.84305 9.24584 5.84284 9.24608C5.80524 9.28802 5.71632 9.34451 5.56488 9.36945Z" fill="#FAB829" stroke="#FAB829" strokeWidth="0.18" />
              <path d="M5.3666 2.02976C5.94996 2.02976 6.48026 1.98949 6.86665 1.92361C7.05912 1.89079 7.22019 1.85092 7.33522 1.80454C7.39231 1.78153 7.4433 1.75487 7.48155 1.723C7.5189 1.69188 7.5566 1.64485 7.5566 1.5817C7.5566 1.51854 7.5189 1.47152 7.48155 1.44039C7.4433 1.40852 7.39231 1.38186 7.33522 1.35885C7.22019 1.31248 7.05912 1.27261 6.86665 1.23979C6.48026 1.17391 5.94996 1.13363 5.3666 1.13363C4.78324 1.13363 4.25294 1.17391 3.86655 1.23979C3.67408 1.27261 3.51301 1.31248 3.39798 1.35885C3.34089 1.38186 3.2899 1.40852 3.25165 1.44039C3.2143 1.47152 3.1766 1.51854 3.1766 1.5817C3.1766 1.64485 3.2143 1.69188 3.25165 1.723C3.2899 1.75487 3.34089 1.78153 3.39798 1.80454C3.51301 1.85092 3.67408 1.89079 3.86655 1.92361C4.25294 1.98949 4.78324 2.02976 5.3666 2.02976Z" fill="#B7791D" stroke="#B7791D" strokeWidth="0.18" />
              <path d="M7.65357 4.83157L7.65356 4.83159C7.47637 5.19018 7.21537 5.50084 6.89264 5.73729C6.71565 5.86715 6.52204 5.97271 6.31698 6.05115L6.31696 6.05116C6.04055 6.15683 5.74708 6.21095 5.45113 6.21083C5.45112 6.21083 5.45111 6.21083 5.4511 6.21083H5.27458C5.25278 6.21083 5.23117 6.21048 5.20979 6.20992M7.65357 4.83157L5.12161 6.20581M7.65357 4.83157C7.81958 4.4954 7.90586 4.12554 7.90572 3.75066C7.90572 3.75064 7.90572 3.75063 7.90572 3.75062V1.5918L7.72573 1.59106L7.7254 1.59486L7.72522 1.59596M7.65357 4.83157L7.72522 1.59596M5.20979 6.20992L5.21216 6.11995L5.20995 6.20993L5.20979 6.20992ZM5.20979 6.20992L5.19758 6.20939L5.19233 6.20919H5.18921L5.18921 6.20914L5.1889 6.20913C5.17497 6.20864 5.16023 6.20813 5.14543 6.20738L5.14486 6.20736L5.12161 6.20581M5.12161 6.20581L5.12691 6.11598L5.12118 6.20579L5.12161 6.20581ZM5.003 6.10489L4.99245 6.19427C4.99405 6.19446 4.99575 6.19466 4.99752 6.19488C5.00361 6.1956 5.0106 6.19644 5.01739 6.19714L5.02664 6.10763L5.01693 6.19709C5.02828 6.19833 5.03971 6.19936 5.05018 6.20031C5.05221 6.20049 5.0542 6.20067 5.05615 6.20085L5.05635 6.20087C5.05818 6.20103 5.06038 6.20124 5.06279 6.20146C5.06833 6.20198 5.075 6.20261 5.08097 6.20306L4.7845 6.06898L4.76558 6.15697C4.77904 6.15986 4.79266 6.16267 4.80637 6.16532M5.003 6.10489L4.99285 6.19432C4.98015 6.19288 4.96687 6.19131 4.95342 6.18949L4.96554 6.10031M5.003 6.10489C4.99049 6.10347 4.97799 6.102 4.96554 6.10031M5.003 6.10489L5.02664 6.10762C5.03712 6.10876 5.0476 6.10971 5.05807 6.11065C5.06016 6.11084 5.06224 6.11103 5.06433 6.11122C5.06702 6.11146 5.06972 6.11171 5.07241 6.11197C5.07767 6.11246 5.08292 6.11295 5.08819 6.11335L4.90464 6.09157C4.91715 6.09359 4.92977 6.0954 4.94238 6.09703C4.94489 6.09739 4.9474 6.09775 4.94991 6.09812C4.95512 6.09888 4.96034 6.09964 4.96554 6.10031M4.96554 6.10031L4.95415 6.18958C4.94813 6.18882 4.9414 6.18783 4.93582 6.18702C4.93357 6.18669 4.9315 6.18639 4.92975 6.18614L4.94238 6.09704L4.9308 6.18628C4.91743 6.18455 4.90388 6.18262 4.8903 6.18042L4.88957 6.18031L4.86773 6.17659L4.86752 6.17656C4.8548 6.17437 4.84136 6.17202 4.82788 6.16948M4.82788 6.16948L4.84457 6.08105L4.82824 6.16955L4.82788 6.16948ZM4.82788 6.16948L4.80637 6.16532M4.80637 6.16532L4.82344 6.07695L4.80567 6.16518L4.80637 6.16532ZM4.74495 6.15242L4.76446 6.06456L4.74434 6.15228L4.74495 6.15242ZM4.74495 6.15242C4.73112 6.14935 4.71744 6.14617 4.70382 6.1429L4.70323 6.14275L4.68428 6.13806L4.68405 6.138C4.66999 6.13448 4.65596 6.13082 4.64198 6.12704L4.64177 6.12698L4.6244 6.12223L4.62401 6.12213C4.60947 6.11808 4.59504 6.11389 4.58091 6.1097L4.58046 6.10957L4.56473 6.10482L4.56434 6.1047C4.54944 6.10013 4.53457 6.09541 4.51973 6.09054L4.54776 6.00502M4.74495 6.15242L4.72487 6.05539L4.70592 6.0507C4.69241 6.04731 4.67894 6.0438 4.6655 6.04017L4.64814 6.03542C4.63421 6.03154 4.62029 6.0275 4.60647 6.02341L4.59074 6.01866C4.5764 6.01426 4.56207 6.00971 4.54776 6.00502M4.54776 6.00502L4.53395 6.00049L4.54776 6.00502ZM7.90361 1.6202C7.90342 1.62154 7.90321 1.62287 7.90299 1.62421L7.81572 1.60979V1.61461L7.89728 1.62967H7.89944C7.89944 1.62981 7.89944 1.62994 7.89944 1.63007L7.90188 1.63052C7.90176 1.63118 7.90163 1.63183 7.90151 1.63248L7.90361 1.6202ZM7.90361 1.6202C7.90494 1.61104 7.90565 1.6018 7.90572 1.59253L7.81572 1.5918H7.72572L7.90361 1.6202ZM7.90124 1.63367C7.90128 1.63349 7.90133 1.63327 7.90138 1.63304L7.8994 1.63262L7.90124 1.63367ZM7.90124 1.63367C7.90119 1.63388 7.90115 1.63403 7.90114 1.6341L7.9012 1.63386L7.90124 1.63367ZM7.72522 1.59596L7.72487 1.59782L7.72385 1.60185L7.72303 1.60439C7.72251 1.6057 7.72192 1.60698 7.72128 1.60824L7.72115 1.6085L7.72112 1.60849L7.71953 1.61152C7.71835 1.61374 7.71706 1.61591 7.71567 1.618L7.71565 1.61799L7.71453 1.61975L7.71396 1.62064C7.71126 1.62434 7.70889 1.62742 7.70668 1.63002L7.70664 1.63007L7.70434 1.63266C7.70179 1.63557 7.6989 1.63865 7.69568 1.64183L7.69568 1.64182L7.69531 1.64219L7.69279 1.64471C7.6885 1.64869 7.68405 1.6526 7.67934 1.65649L7.67929 1.65644L7.67807 1.65753L7.67806 1.65754L7.67655 1.65878L7.67654 1.65877C7.67194 1.66252 7.66701 1.66632 7.66175 1.67016L7.65729 1.6734C7.65098 1.67787 7.64447 1.6823 7.63766 1.6867C7.63738 1.68688 7.6371 1.68706 7.63682 1.68725M7.72522 1.59596L7.72572 1.71947V1.73464C7.72218 1.73739 7.71854 1.74013 7.7148 1.74286L7.70978 1.74652C7.70208 1.75197 7.69405 1.75743 7.68559 1.76289M7.63682 1.68725L7.63764 1.68667L7.63765 1.68669L7.63929 1.68571L7.68559 1.76289M7.63682 1.68725L7.63585 1.6878C7.62876 1.69228 7.62173 1.69654 7.61445 1.70065L7.61445 1.70065L7.61396 1.70093L7.60795 1.70437L7.6079 1.7044C7.59144 1.71384 7.57325 1.72317 7.55326 1.73235L7.55326 1.73235L7.5523 1.7328L7.54644 1.73558M7.63682 1.68725L7.54644 1.73558M7.68559 1.76289L7.68395 1.76387L7.68559 1.76289ZM7.71981 1.62173L7.72572 1.62599V1.62471V1.61479V1.61134V1.61115V1.61051V1.60953V1.60318V1.60246V1.59994V1.59798V1.59538V1.59491L7.71981 1.62173ZM7.71981 1.62173C7.71984 1.62143 7.71986 1.62112 7.7199 1.62082C7.72021 1.61772 7.72067 1.61489 7.72117 1.61238C7.72138 1.61133 7.72161 1.61033 7.72183 1.60939C7.72186 1.60924 7.7219 1.6091 7.72193 1.60896C7.72196 1.60884 7.72199 1.60873 7.72202 1.60861C7.72266 1.60604 7.7233 1.60398 7.72379 1.6025C7.72386 1.60229 7.72392 1.60209 7.72399 1.6019C7.72405 1.60172 7.7241 1.60156 7.72416 1.60141L7.72444 1.60064L7.72422 1.60198L7.7242 1.60215V1.60265V1.60953C7.7242 1.60706 7.72431 1.60478 7.72448 1.60274C7.7245 1.60252 7.72452 1.6023 7.72454 1.60208C7.72461 1.60125 7.7247 1.60047 7.72478 1.59973L7.72483 1.5996L7.72546 1.59793L7.72559 1.59759C7.72577 1.59714 7.72566 1.59741 7.72545 1.59793C7.72527 1.59838 7.72501 1.59902 7.72481 1.59955L7.71981 1.62173ZM7.54644 1.73558C7.53554 1.74059 7.52624 1.74485 7.51635 1.74895L7.51632 1.74887L7.51341 1.75023C7.50235 1.7549 7.4909 1.75956 7.47904 1.76418L7.47904 1.76418L7.47836 1.76445L7.47354 1.76638C7.47344 1.76642 7.47333 1.76646 7.47323 1.7665C7.4619 1.77093 7.45024 1.7753 7.43826 1.77962L7.43825 1.77962L7.43755 1.77988L7.4353 1.78071C7.43519 1.78076 7.43507 1.7808 7.43496 1.78084C7.42175 1.7856 7.40808 1.79031 7.39395 1.79497L7.39074 1.79601L7.39074 1.796L7.38999 1.79625C7.37658 1.80072 7.36285 1.80514 7.34879 1.80952L7.34561 1.81047L7.34561 1.81046L7.34473 1.81073C7.31431 1.82015 7.28232 1.82937 7.24876 1.83837L7.24831 1.8385L7.24491 1.83943C7.24481 1.83946 7.24471 1.83948 7.24462 1.83951C7.21075 1.84853 7.17547 1.8574 7.13875 1.86611L7.13543 1.86688L7.13536 1.86689C7.09825 1.87553 7.05977 1.88387 7.0199 1.89193L7.0199 1.89193L7.01889 1.89215L7.01711 1.89253C6.83338 1.92961 6.62192 1.96078 6.38963 1.98426L6.30537 1.99277L6.30876 2.07739C6.34201 2.90937 6.23085 3.7712 5.90788 4.52629C5.72197 4.96081 5.41 5.32554 5.01546 5.58927L5.01544 5.58928C4.79135 5.73914 4.55379 5.80568 4.30584 5.82407L4.27586 5.99603C4.29457 6.00437 4.31328 6.0125 4.332 6.02043L4.33199 6.02044L4.33323 6.02095L4.33718 6.02254C4.33736 6.02262 4.33754 6.02269 4.33772 6.02277C4.35481 6.02996 4.372 6.03694 4.38929 6.04372L4.39022 6.04408L4.39814 6.04709C4.39826 6.04713 4.39838 6.04718 4.39849 6.04722C4.41452 6.05346 4.43067 6.05955 4.44704 6.0655L4.44763 6.06571L4.45824 6.06947C4.45839 6.06953 4.45854 6.06958 4.45869 6.06964C4.47472 6.07552 4.49051 6.08085 4.50532 6.08582L4.50591 6.08601L4.51971 6.09054L7.54644 1.73558ZM7.81572 1.61468L7.88566 1.62967H7.81572V1.61468ZM7.72572 1.71367V1.71917V1.67995V1.71266V1.71367ZM7.72572 1.67263V1.67788V1.65144V1.67224V1.67263ZM7.72572 1.64704V1.65132L7.71944 1.62745V1.62967C7.71944 1.62893 7.71945 1.6282 7.71947 1.62747L7.72294 1.62967L7.72572 1.63144V1.64612V1.64704ZM7.37136 1.8967C7.33976 1.90649 7.30666 1.91602 7.27207 1.9253L7.37136 1.8967ZM7.67913 1.65669L7.67907 1.65674L7.67913 1.65669Z" fill="#E8A615" stroke="#E8A615" strokeWidth="0.18" />
              <path d="M3.22772 2.08404L3.24735 2.17188C3.22772 2.08404 3.22708 2.08419 3.22644 2.08434L3.22517 2.08465L3.22266 2.08533L3.21773 2.08689C3.21448 2.08802 3.21137 2.0893 3.20839 2.09072C3.20243 2.09357 3.19713 2.09688 3.19249 2.10036C3.18331 2.10724 3.17648 2.11493 3.17144 2.12182C3.1618 2.135 3.15529 2.14996 3.15033 2.16476C3.14032 2.19456 3.13063 2.24207 3.12233 2.32171C3.10559 2.4823 3.09279 2.79218 3.10571 3.39519C3.11905 4.01747 3.32833 4.47799 3.5353 4.78318C3.63864 4.93558 3.74136 5.04921 3.81875 5.12513C3.85746 5.16311 3.88991 5.19172 3.91303 5.21109C3.92459 5.22077 3.93382 5.22816 3.94035 5.23326L3.94807 5.23919L3.95033 5.24088L3.95103 5.2414L3.95128 5.24158L3.95138 5.24165L4.00453 5.16902L3.95146 5.24171L3.96801 5.25379L3.98816 5.25752C4.1025 5.27866 4.20049 5.22152 4.27573 5.1417C4.35105 5.0618 4.41667 4.94666 4.47321 4.81442C4.58687 4.5486 4.67427 4.18869 4.72404 3.82866C4.77379 3.46876 4.78705 3.10068 4.74795 2.81817C4.72851 2.67772 4.69519 2.55108 4.64173 2.4564C4.58757 2.36049 4.5042 2.28455 4.38576 2.28115C4.09232 2.27271 3.81452 2.22409 3.60941 2.17726C3.50705 2.15389 3.42328 2.13107 3.36531 2.11417C3.33633 2.10572 3.31383 2.09876 3.2987 2.09395L3.28167 2.08845L3.27752 2.08707L3.27658 2.08675L3.2764 2.08669L3.27639 2.08669L3.27638 2.08669L3.27637 2.08668L3.25243 2.07852L3.22772 2.08404Z" fill="#FFCD68" stroke="#FFCD68" strokeWidth="0.18" />
              <path d="M5.21412 9.55992L5.21413 9.55992C5.24014 9.55801 5.26621 9.55616 5.2923 9.5543C5.67957 9.52675 6.07205 9.49883 6.38005 9.30457L6.38039 9.30435C6.43457 9.27052 6.48557 9.23198 6.53279 9.18917L6.60124 9.12714L6.66147 9.19717C6.81594 9.37679 6.99785 9.48423 7.14212 9.54683C7.21411 9.57806 7.27613 9.59786 7.3197 9.60977C7.34146 9.61571 7.35854 9.61967 7.36986 9.62209L7.38237 9.62462L7.38512 9.62512L7.38539 9.62517L7.38545 9.62518L7.3855 9.62518L7.38556 9.6252L7.38557 9.6252L7.63445 9.66584L7.41586 9.79195C7.22046 9.90467 6.93515 9.98714 6.61019 10.0434L6.61014 10.0434C6.52285 10.0585 6.43235 10.0719 6.33918 10.0834L5.21412 9.55992ZM5.21412 9.55992C4.76321 9.59292 4.31388 9.51887 3.85603 9.44342L3.85144 9.44266L3.81829 9.4372L3.78967 9.4548C3.60116 9.5707 3.43126 9.61247 3.38255 9.6227M5.21412 9.55992L3.38255 9.6227M3.37848 9.62345H3.37813L3.37066 9.62471L3.36875 9.62504L3.12191 9.66689L3.33889 9.79178C3.35205 9.79935 3.36555 9.80677 3.37939 9.81405L3.37953 9.81412L3.37848 9.62345ZM3.37848 9.62345L3.38255 9.6227M3.37848 9.62345L3.38255 9.6227M3.51402 9.8758C3.54594 9.88872 3.57918 9.90109 3.61373 9.91291L3.64286 9.82775L3.61361 9.91286C3.92139 10.0186 4.33433 10.0863 4.77508 10.118L4.77513 10.118C4.79971 10.1198 4.82436 10.1214 4.84909 10.123L4.85467 10.0331C5.02598 10.044 5.20167 10.0494 5.37731 10.0494L3.51402 9.8758Z" fill="#E8A615" stroke="#E8A615" strokeWidth="0.18" />
              <path d="M4.29317 9.48363L4.29318 9.48363C4.32275 9.50457 4.3618 9.51754 4.39756 9.52669C4.43587 9.53648 4.48129 9.54447 4.53071 9.551C4.62976 9.56408 4.75144 9.57216 4.87799 9.57572C5.1299 9.58281 5.41151 9.57226 5.58396 9.54396C5.76225 9.5147 5.89235 9.44473 5.96426 9.36474C5.99894 9.32616 6.02816 9.27582 6.02831 9.22024C6.02838 9.19079 6.02003 9.16022 6.00012 9.1338C5.98044 9.10767 5.95374 9.09122 5.92626 9.08208C5.90427 9.07477 5.87433 9.06947 5.84383 9.0652C5.81147 9.06067 5.7721 9.05646 5.72793 9.05266C5.63949 9.04505 5.52901 9.03879 5.41144 9.03481C5.17736 9.0269 4.90923 9.02785 4.72758 9.04647C4.5419 9.06551 4.39896 9.11957 4.3136 9.18962C4.27181 9.22391 4.23434 9.27007 4.22477 9.32655C4.21378 9.39141 4.24304 9.44812 4.29317 9.48363Z" fill="#FFCD68" stroke="#FFCD68" strokeWidth="0.18" />
              <path d="M5.54516 6.5356L5.6397 6.53572L5.89878 6.53605C5.90866 6.53604 5.91853 6.53552 5.92835 6.5345L6.03606 6.52332L6.02735 6.63126C6.00008 6.96946 5.8947 8.24777 5.82868 8.63278L5.81194 8.73042L5.71635 8.70441C5.69354 8.69821 5.66925 8.69281 5.64315 8.68752L5.63611 8.6861L5.63474 8.68586L5.63474 8.68585C5.61101 8.68123 5.58569 8.67731 5.55977 8.67394C5.5597 8.67393 5.55963 8.67392 5.55956 8.67391L5.54941 8.67264C5.49356 8.66588 5.43737 8.66228 5.38111 8.66187H5.38022H5.37974C5.35095 8.66171 5.32202 8.66238 5.29333 8.66383L5.28879 8.66406V8.66394H5.287C5.2036 8.66798 5.12078 8.67994 5.03965 8.69967L4.94688 8.72222L4.92983 8.62829C4.92737 8.61471 4.9249 8.60042 4.92243 8.58542L4.92244 8.58542L4.92162 8.58028C4.92145 8.57913 4.9214 8.57878 4.9214 8.57878M5.54516 6.5356L4.92141 8.57887C4.9214 8.57881 4.9214 8.57878 4.9214 8.57878M5.54516 6.5356L5.54969 6.63003C5.56591 6.96795 5.55927 7.30361 5.49656 7.62977L5.49655 7.62982C5.43102 7.97158 5.23797 8.25269 4.96397 8.3329L4.88986 8.3546L4.90004 8.43115L4.90688 8.48113M5.54516 6.5356L4.90688 8.48113M4.9214 8.57878L4.92118 8.57753L4.92119 8.57753L4.91521 8.53943L4.91426 8.53366C4.91417 8.53298 4.91407 8.53221 4.91398 8.53137L4.90746 8.4864L4.90673 8.48121L4.90688 8.4812C4.90688 8.48118 4.90688 8.48116 4.90688 8.48113M4.9214 8.57878L4.90688 8.48113M4.91553 8.54116C4.91559 8.54142 4.91556 8.54128 4.91553 8.54114L4.91553 8.54116Z" fill="#E8A615" stroke="#E8A615" strokeWidth="0.18" />
            </svg>