<svg width="27" height="33" viewBox="0 0 27 33" fill="none" xmlns="http://www.w3.org/2000/svg">
<g filter="url(#filter0_d_1_4054)">
<path d="M18.0655 15.7572C19.1384 15.2125 19.8097 14.2531 19.6529 12.6548C19.4417 10.4706 17.5495 9.73823 15.1607 9.52966L15.1602 6.5H13.3094L13.3089 9.44998C12.8219 9.44998 12.3255 9.45952 11.8314 9.4694L11.831 6.5004L9.98182 6.50023L9.98147 9.52914C9.58072 9.5373 9.18716 9.54505 8.80288 9.54505V9.53609L6.25 9.53506L6.25035 11.5044C6.25035 11.5044 7.61714 11.4787 7.59462 11.5036C8.34401 11.5041 8.58871 11.9378 8.65908 12.3122L8.65965 20.6117C8.62666 20.8466 8.48781 21.222 7.96382 21.2227C7.98766 21.2436 6.61747 21.2225 6.61747 21.2225L6.25035 23.4246H8.6585C9.10723 23.4251 9.54812 23.4321 9.98067 23.4355L9.98228 26.4995L11.831 26.5L11.8305 23.4682C12.3391 23.4785 12.83 23.483 13.3095 23.4824L13.309 26.5H15.1598L15.1608 23.4412C18.2718 23.2631 20.4498 22.482 20.7206 19.5703C20.9389 17.2261 19.8318 16.1797 18.0655 15.7572ZM11.8756 11.6373C12.9194 11.6373 16.2023 11.306 16.2028 13.4792C16.2023 15.5626 12.9205 15.3192 11.8756 15.3192V11.6373ZM11.8748 21.2377L11.8756 17.178C13.1298 17.1776 17.0634 16.8183 17.0639 19.2069C17.0645 21.4975 13.1298 21.2367 11.8748 21.2377Z" fill="#888888"/>
</g>
<defs>
<filter id="filter0_d_1_4054" x="0.25" y="0.5" width="26.498" height="32" filterUnits="userSpaceOnUse" color-interpolation-filters="sRGB">
<feFlood flood-opacity="0" result="BackgroundImageFix"/>
<feColorMatrix in="SourceAlpha" type="matrix" values="0 0 0 0 0 0 0 0 0 0 0 0 0 0 0 0 0 0 127 0" result="hardAlpha"/>
<feOffset/>
<feGaussianBlur stdDeviation="3"/>
<feComposite in2="hardAlpha" operator="out"/>
<feColorMatrix type="matrix" values="0 0 0 0 0.533333 0 0 0 0 0.533333 0 0 0 0 0.533333 0 0 0 0.3 0"/>
<feBlend mode="normal" in2="BackgroundImageFix" result="effect1_dropShadow_1_4054"/>
<feBlend mode="normal" in="SourceGraphic" in2="effect1_dropShadow_1_4054" result="shape"/>
</filter>
</defs>
</svg>
