<svg width="310" height="186" viewBox="0 0 310 186" fill="none" xmlns="http://www.w3.org/2000/svg">
<path opacity="0.2" d="M-232.462 -382.843V328.182M-207.666 -382.843V328.182M-182.87 -382.843V328.182M-158.074 -382.843V328.182M-133.278 -382.843V328.182M-108.482 -382.843V328.182M-83.6864 -382.843V328.182M-58.8904 -382.843V328.182M-34.0944 -382.843V328.182M-9.29845 -382.843V328.182M15.4975 -382.843V328.182M40.2935 -382.843V328.182M65.0895 -382.843V328.182M89.8855 -382.843V328.182M114.682 -382.843V328.182M139.478 -382.843V328.182M164.274 -382.843V328.182M189.07 -382.843V328.182M213.866 -382.843V328.182M238.661 -382.843V328.182M263.457 -382.843V328.182M288.253 -382.843V328.182M313.049 -382.843V328.182M337.845 -382.843V328.182M362.641 -382.843V328.182M387.437 -382.843V328.182M412.233 -382.843V328.182M437.029 -382.843V328.182M461.825 -382.843V328.182M486.621 -382.843V328.182M511.417 -382.843V328.182M536.213 -382.843V328.182M561.009 -382.843V328.182M519.786 -424.066L-191.239 -424.066M519.786 -399.27L-191.239 -399.27M519.786 -374.474L-191.239 -374.474M519.786 -349.678L-191.239 -349.678M519.786 -324.882L-191.239 -324.882M519.786 -300.086L-191.239 -300.086M519.786 -275.29L-191.239 -275.29M519.786 -250.494L-191.239 -250.494M519.786 -225.698L-191.239 -225.698M519.786 -200.902L-191.239 -200.902M519.786 -176.106L-191.239 -176.106M519.786 -151.31L-191.239 -151.31M519.786 -126.514L-191.239 -126.514M519.786 -101.718L-191.239 -101.718M519.786 -76.9224L-191.239 -76.9225M519.786 -52.1264L-191.239 -52.1265M519.786 -27.3305L-191.239 -27.3305M519.786 -2.53446L-191.239 -2.5345M519.786 22.2615L-191.239 22.2615M519.786 47.0575L-191.239 47.0575M519.786 71.8535L-191.239 71.8535M519.786 96.6495L-191.239 96.6495M519.786 121.446L-191.239 121.445M519.786 146.242L-191.239 146.241M519.786 171.038L-191.239 171.037M519.786 195.834L-191.239 195.833M519.786 220.629H-191.239M519.786 245.425H-191.239M519.786 270.221H-191.239M519.786 295.017H-191.239M519.786 319.813H-191.239M519.786 344.609H-191.239M519.786 369.405H-191.239" stroke="#DEDBFF" stroke-width="0.2"/>
</svg>
