<svg width="6" height="6" viewBox="0 0 6 6" fill="none" xmlns="http://www.w3.org/2000/svg">
<path fill-rule="evenodd" clip-rule="evenodd" d="M5.53014 5.51847H0.289174V5.89157H5.89158V0.108438H5.53014L5.53014 5.00346C3.50965 4.95882 2.26002 4.16547 1.50816 3.18992C0.727886 2.17751 0.469898 0.950384 0.469897 0.108438H0.108451C0.108452 1.01542 0.383595 2.33008 1.22531 3.42221C2.05012 4.49241 3.40599 5.33161 5.53014 5.37665L5.53014 5.51847Z" fill="#EA3E3E"/>
<path fill-rule="evenodd" clip-rule="evenodd" d="M0.180723 6H6V0H5.42169L5.42169 4.89182C3.49796 4.8219 2.31134 4.05444 1.59403 3.12373C0.831559 2.13441 0.578314 0.932231 0.578313 0.108434V0H0L4.30877e-08 0.108434C3.77017e-07 1.03355 0.27988 2.37316 1.13941 3.4884C1.85642 4.41873 2.96262 5.17386 4.5962 5.41003H0.180723V6ZM0.39759 5.78313V5.62689H5.63856L5.63855 5.27048L5.53242 5.26823C3.43959 5.22386 2.11505 4.39905 1.31118 3.35601C0.520198 2.32971 0.239362 1.1 0.218181 0.216867H0.362807C0.384041 1.07149 0.657111 2.26333 1.42226 3.25611C2.19499 4.25874 3.47589 5.06653 5.52773 5.11187L5.63856 5.11432V0.216867H5.78313V5.78313H0.39759Z" fill="#EA3E3E"/>
</svg>
