<svg width="101" height="35" viewBox="0 0 101 35" fill="none" xmlns="http://www.w3.org/2000/svg">
<path opacity="0.6" d="M-43.5 -94V131M153 -65.5L-72 -65.5M-31.5 -94V131M153 -53.5L-72 -53.5M-19.5 -94V131M153 -41.5L-72 -41.5M-7.5 -94V131M153 -29.5L-72 -29.5M4.5 -94V131M153 -17.5L-72 -17.5M16.5 -94V131M153 -5.5L-72 -5.50001M28.5 -94V131M153 6.5L-72 6.49999M40.5 -94V131M153 18.5L-72 18.5M52.5 -94V131M153 30.5L-72 30.5M64.5 -94V131M153 42.5L-72 42.5M76.5 -94V131M153 54.5L-72 54.5M88.5 -94V131M153 66.5L-72 66.5M100.5 -94V131M153 78.5L-72 78.5M112.5 -94V131M153 90.5L-72 90.5M124.5 -94V131M153 102.5L-72 102.5" stroke="#DEDBFF" stroke-width="0.2"/>
</svg>
