<svg width="128" height="128" viewBox="0 0 128 128" fill="none" xmlns="http://www.w3.org/2000/svg">
<g filter="url(#filter0_d_1_113)">
<path fill-rule="evenodd" clip-rule="evenodd" d="M36.6529 104H91.4379C93.5315 104 95.2763 103.651 97.37 102.603C99.8126 101.555 101.208 99.8079 101.906 98.4105C101.906 98.4105 101.906 98.0611 102.255 98.0611C103.302 96.3144 104 94.2183 104 91.7729C104 89.6769 103.651 87.5808 102.255 85.4847L67.7093 26.0961C67.0115 24.6987 65.6157 24 63.8709 24C62.4751 24 61.0793 24.6987 60.0325 26.0961L26.1845 85.4847C25.4866 86.8821 24.0908 88.6288 24.0908 91.4236C23.7418 93.869 24.4397 95.9651 25.4866 98.0611C26.5334 100.157 28.2782 101.904 30.7208 102.603C32.8145 104 35.2571 104 36.6529 104ZM59.6835 95.6157H36.6529C35.2571 95.6157 34.5592 95.6157 34.2103 95.2664C33.5124 94.917 33.1634 94.5677 32.8145 93.869C32.4655 93.5197 32.4655 92.821 32.4655 92.1223C32.4655 91.7729 32.8145 91.4236 33.5124 90.0262L59.6835 44.6114V95.6157ZM68.0583 95.6157V44.262L94.5784 90.0262C94.9273 90.7249 94.9273 91.4236 94.9273 92.1223C94.9273 92.821 94.9273 93.5197 94.5784 93.869C94.2294 94.2183 94.2294 94.5677 93.8805 94.5677L93.5315 94.917C92.8336 95.2664 92.1357 95.2664 91.0889 95.2664H68.0583V95.6157Z" fill="#888888"/>
</g>
<defs>
<filter id="filter0_d_1_113" x="0" y="0" width="128" height="128" filterUnits="userSpaceOnUse" color-interpolation-filters="sRGB">
<feFlood flood-opacity="0" result="BackgroundImageFix"/>
<feColorMatrix in="SourceAlpha" type="matrix" values="0 0 0 0 0 0 0 0 0 0 0 0 0 0 0 0 0 0 127 0" result="hardAlpha"/>
<feOffset/>
<feGaussianBlur stdDeviation="12"/>
<feComposite in2="hardAlpha" operator="out"/>
<feColorMatrix type="matrix" values="0 0 0 0 0.533333 0 0 0 0 0.533333 0 0 0 0 0.533333 0 0 0 0.3 0"/>
<feBlend mode="normal" in2="BackgroundImageFix" result="effect1_dropShadow_1_113"/>
<feBlend mode="normal" in="SourceGraphic" in2="effect1_dropShadow_1_113" result="shape"/>
</filter>
</defs>
</svg>
