<svg width="128" height="128" viewBox="0 0 128 128" fill="none" xmlns="http://www.w3.org/2000/svg">
<g filter="url(#filter0_d_1_55)">
<path fill-rule="evenodd" clip-rule="evenodd" d="M36.6529 24H91.4379C93.5315 24 95.2763 24.3493 97.37 25.3974C99.8126 26.4454 101.208 28.1921 101.906 29.5895C101.906 29.5895 101.906 29.9389 102.255 29.9389C103.302 31.6856 104 33.7817 104 36.2271C104 38.3231 103.651 40.4192 102.255 42.5153L67.7093 101.904C67.0114 103.301 65.6157 104 63.8709 104C62.4751 104 61.0793 103.301 60.0325 101.904L26.1845 42.5153C25.4866 41.1179 24.0908 39.3712 24.0908 36.5764C23.7418 34.131 24.4397 32.0349 25.4866 29.9389C26.5334 27.8428 28.2782 26.0961 30.7208 25.3974C32.8145 24 35.2571 24 36.6529 24ZM59.6835 32.3843H36.6529C35.2571 32.3843 34.5592 32.3843 34.2103 32.7336C33.5124 33.083 33.1634 33.4323 32.8145 34.131C32.4655 34.4803 32.4655 35.179 32.4655 35.8777C32.4655 36.2271 32.8145 36.5764 33.5124 37.9738L59.6835 83.3886V32.3843ZM68.0583 32.3843V83.738L94.5784 37.9738C94.9273 37.2751 94.9273 36.5764 94.9273 35.8777C94.9273 35.179 94.9273 34.4803 94.5784 34.131C94.2294 33.7817 94.2294 33.4323 93.8805 33.4323L93.5315 33.083C92.8336 32.7336 92.1357 32.7336 91.0889 32.7336H68.0583V32.3843Z" fill="#888888"/>
</g>
<defs>
<filter id="filter0_d_1_55" x="0" y="0" width="128" height="128" filterUnits="userSpaceOnUse" color-interpolation-filters="sRGB">
<feFlood flood-opacity="0" result="BackgroundImageFix"/>
<feColorMatrix in="SourceAlpha" type="matrix" values="0 0 0 0 0 0 0 0 0 0 0 0 0 0 0 0 0 0 127 0" result="hardAlpha"/>
<feOffset/>
<feGaussianBlur stdDeviation="12"/>
<feComposite in2="hardAlpha" operator="out"/>
<feColorMatrix type="matrix" values="0 0 0 0 0.533333 0 0 0 0 0.533333 0 0 0 0 0.533333 0 0 0 0.3 0"/>
<feBlend mode="normal" in2="BackgroundImageFix" result="effect1_dropShadow_1_55"/>
<feBlend mode="normal" in="SourceGraphic" in2="effect1_dropShadow_1_55" result="shape"/>
</filter>
</defs>
</svg>
