<svg width="6" height="6" viewBox="0 0 6 6" fill="none" xmlns="http://www.w3.org/2000/svg">
<path fill-rule="evenodd" clip-rule="evenodd" d="M5.53014 0.481535H0.289174V0.108429H5.89158V5.89156H5.53014L5.53014 0.996536C3.50965 1.04118 2.26002 1.83453 1.50816 2.81008C0.727886 3.82249 0.469898 5.04962 0.469897 5.89156H0.108451C0.108452 4.98458 0.383595 3.66992 1.22531 2.57779C2.05012 1.50759 3.40599 0.668387 5.53014 0.623352L5.53014 0.481535Z" fill="#39CD83"/>
<path fill-rule="evenodd" clip-rule="evenodd" d="M0.180723 0H6V6H5.42169L5.42169 1.10818C3.49796 1.1781 2.31134 1.94556 1.59403 2.87627C0.831559 3.86559 0.578314 5.06777 0.578313 5.89157V6H0L4.30877e-08 5.89157C3.77017e-07 4.96645 0.27988 3.62684 1.13941 2.5116C1.85642 1.58127 2.96262 0.826137 4.5962 0.589973H0.180723V0ZM0.39759 0.216867V0.373105H5.63856L5.63855 0.729515L5.53242 0.731766C3.43959 0.776137 2.11505 1.60095 1.31118 2.64399C0.520198 3.67029 0.239362 4.9 0.218181 5.78313H0.362807C0.384041 4.92851 0.657111 3.73667 1.42226 2.74389C2.19499 1.74126 3.47589 0.933466 5.52773 0.888133L5.63856 0.885684V5.78313H5.78313V0.216867H0.39759Z" fill="#39CD83"/>
</svg>
